<?xml version="1.0" encoding="UTF-8"?>
<svg width="305px" height="72px" viewBox="0 0 305 72" version="1.1" xmlns="http://www.w3.org/2000/svg" xmlns:xlink="http://www.w3.org/1999/xlink">
    <!-- Generator: Sketch 49.1 (51147) - http://www.bohemiancoding.com/sketch -->
    <title>Group</title>
    <desc>Created with Sketch.</desc>
    <defs>
        <polygon id="path-1" points="0 0.053 71.9478 0.053 71.9478 72 0 72"></polygon>
    </defs>
    <g id="Page-1" stroke="none" stroke-width="1" fill="none" fill-rule="evenodd">
        <g id="Desktop-HD" transform="translate(-808.000000, -104.000000)">
            <g id="Group" transform="translate(808.000000, 103.000000)">
                <path d="M124.5744,7.8362 C124.0524,7.8362 123.5204,7.8442 122.9794,7.8602 C122.4404,7.8782 122.0234,7.9182 121.7284,7.9832 L121.7284,31.6262 C121.8284,31.6602 122.0004,31.6842 122.2454,31.7002 C122.4894,31.7182 122.7504,31.7342 123.0294,31.7502 C123.3074,31.7662 123.5684,31.7822 123.8144,31.7982 C124.0594,31.8152 124.2314,31.8232 124.3294,31.8232 C125.8004,31.8232 127.0104,31.4792 127.9604,30.7922 C128.9084,30.1062 129.6524,29.1912 130.1914,28.0452 C130.7304,26.9012 131.1054,25.5862 131.3194,24.0982 C131.5304,22.6082 131.6384,21.0482 131.6384,19.4132 C131.6384,17.9082 131.5494,16.4532 131.3694,15.0482 C131.1874,13.6412 130.8444,12.4072 130.3394,11.3432 C129.8304,10.2812 129.1114,9.4312 128.1794,8.7922 C127.2474,8.1552 126.0464,7.8362 124.5744,7.8362 Z M115.5494,2.6372 C116.1374,2.5392 116.8004,2.4652 117.5354,2.4152 C118.2714,2.3672 119.0234,2.3172 119.7924,2.2682 C120.5604,2.2202 121.3034,2.1882 122.0234,2.1702 C122.7424,2.1532 123.3814,2.1462 123.9354,2.1462 C126.6504,2.1462 128.9164,2.5632 130.7304,3.3982 C132.5474,4.2322 134.0004,5.4072 135.0954,6.9282 C136.1914,8.4492 136.9684,10.2742 137.4274,12.3972 C137.8844,14.5242 138.1134,16.8942 138.1134,19.5112 C138.1134,21.8982 137.8914,24.1792 137.4504,26.3532 C137.0104,28.5282 136.2334,30.4422 135.1214,32.0932 C134.0104,33.7442 132.5054,35.0622 130.6084,36.0412 C128.7104,37.0232 126.3234,37.5132 123.4474,37.5132 C123.0214,37.5132 122.4494,37.4962 121.7284,37.4652 C121.0104,37.4312 120.2574,37.3912 119.4724,37.3412 C118.6884,37.2932 117.9354,37.2432 117.2184,37.1952 C116.4974,37.1452 115.9424,37.0872 115.5494,37.0232 L115.5494,2.6372 Z" id="Fill-1" fill="#FFFFFF"></path>
                <path d="M190.8927,19.6087 C191.0907,19.6737 191.4577,19.7327 191.9967,19.7807 C192.5377,19.8307 192.9057,19.8537 193.1007,19.8537 C193.8217,19.8537 194.5077,19.7557 195.1627,19.5607 C195.8147,19.3637 196.3957,19.0277 196.9027,18.5547 C197.4107,18.0797 197.8107,17.4247 198.1047,16.5927 C198.3997,15.7577 198.5457,14.7027 198.5457,13.4287 C198.5457,12.3487 198.4057,11.4327 198.1277,10.6807 C197.8507,9.9297 197.4757,9.3317 197.0007,8.8897 C196.5277,8.4497 195.9787,8.1297 195.3577,7.9337 C194.7357,7.7387 194.0817,7.6407 193.3957,7.6407 C192.3817,7.6407 191.5477,7.7227 190.8927,7.8837 L190.8927,19.6087 Z M184.7127,2.9797 C185.8907,2.7187 187.1827,2.5127 188.5877,2.3677 C189.9957,2.2197 191.3997,2.1457 192.8067,2.1457 C194.3097,2.1457 195.7907,2.2857 197.2467,2.5627 C198.7017,2.8397 200.0007,3.3887 201.1467,4.2057 C202.2897,5.0237 203.2217,6.1757 203.9427,7.6647 C204.6617,9.1537 205.0207,11.0897 205.0207,13.4767 C205.0207,15.6347 204.7187,17.4667 204.1147,18.9717 C203.5077,20.4747 202.6997,21.7027 201.6857,22.6507 C200.6707,23.5987 199.5037,24.2857 198.1777,24.7107 C196.8527,25.1347 195.4877,25.3467 194.0817,25.3467 L193.4437,25.3467 C193.1507,25.3467 192.8387,25.3407 192.5137,25.3237 C192.1867,25.3067 191.8677,25.2837 191.5557,25.2497 C191.2447,25.2167 191.0247,25.1857 190.8927,25.1517 L190.8927,36.9737 L184.7127,36.9737 L184.7127,2.9797 Z" id="Fill-3" fill="#FFFFFF"></path>
                <polygon id="Fill-5" fill="#FFFFFF" points="238.3292 8.3275 230.1872 8.3275 230.1872 36.9735 224.0062 36.9735 224.0062 8.3275 215.8642 8.3275 215.8642 2.6375 238.3292 2.6375"></polygon>
                <polygon id="Fill-7" fill="#FFFFFF" points="250.7404 2.637 267.9094 2.637 267.9094 8.327 256.9204 8.327 256.9204 16.764 266.8784 16.764 266.8784 22.455 256.9204 22.455 256.9204 31.283 268.1054 31.283 268.1054 36.974 250.7404 36.974"></polygon>
                <path d="M290.6681,7.8362 C290.1451,7.8362 289.6141,7.8442 289.0731,7.8602 C288.5341,7.8782 288.1171,7.9182 287.8211,7.9832 L287.8211,31.6262 C287.9211,31.6602 288.0931,31.6842 288.3391,31.7002 C288.5821,31.7182 288.8441,31.7342 289.1231,31.7502 C289.4001,31.7662 289.6621,31.7822 289.9071,31.7982 C290.1521,31.8152 290.3241,31.8232 290.4221,31.8232 C291.8941,31.8232 293.1031,31.4792 294.0531,30.7922 C295.0011,30.1062 295.7451,29.1912 296.2841,28.0452 C296.8231,26.9012 297.1981,25.5862 297.4121,24.0982 C297.6241,22.6082 297.7311,21.0482 297.7311,19.4132 C297.7311,17.9082 297.6421,16.4532 297.4621,15.0482 C297.2801,13.6412 296.9381,12.4072 296.4321,11.3432 C295.9231,10.2812 295.2041,9.4312 294.2721,8.7922 C293.3401,8.1552 292.1391,7.8362 290.6681,7.8362 Z M281.6421,2.6372 C282.2301,2.5392 282.8941,2.4652 283.6281,2.4152 C284.3641,2.3672 285.1171,2.3172 285.8861,2.2682 C286.6531,2.2202 287.3971,2.1882 288.1171,2.1702 C288.8351,2.1532 289.4741,2.1462 290.0291,2.1462 C292.7431,2.1462 295.0091,2.5632 296.8231,3.3982 C298.6401,4.2322 300.0931,5.4072 301.1891,6.9282 C302.2841,8.4492 303.0611,10.2742 303.5201,12.3972 C303.9771,14.5242 304.2061,16.8942 304.2061,19.5112 C304.2061,21.8982 303.9841,24.1792 303.5441,26.3532 C303.1031,28.5282 302.3261,30.4422 301.2151,32.0932 C300.1031,33.7442 298.5981,35.0622 296.7011,36.0412 C294.8041,37.0232 292.4161,37.5132 289.5401,37.5132 C289.1151,37.5132 288.5421,37.4962 287.8211,37.4652 C287.1031,37.4312 286.3511,37.3912 285.5661,37.3412 C284.7811,37.2932 284.0291,37.2432 283.3111,37.1952 C282.5901,37.1452 282.0351,37.0872 281.6421,37.0232 L281.6421,2.6372 Z" id="Fill-9" fill="#FFFFFF"></path>
                <polygon id="Fill-11" fill="#FFFFFF" points="85.2238 37.513 95.3238 2.93 100.1798 2.93 110.1878 37.513 103.7118 37.513 97.7318 13.192 91.4968 37.513"></polygon>
                <polygon id="Fill-13" fill="#FFFFFF" points="147.0509 37.513 157.1509 2.93 162.0069 2.93 172.0149 37.513 165.5399 37.513 159.5329 13.498 153.3239 37.513"></polygon>
                <polygon id="Fill-15" fill="#FFFFFF" points="87.3273 49.0941 97.5673 49.0941 97.5673 51.3651 89.7973 51.3651 89.7973 59.1691 96.9413 59.1691 96.9413 61.4411 89.7973 61.4411 89.7973 69.8691 97.7313 69.8691 97.7313 72.1421 87.3273 72.1421"></polygon>
                <polygon id="Fill-17" fill="#FFFFFF" points="129.9982 57.5228 128.5822 53.9008 128.4842 53.9008 128.8462 57.5228 128.8462 72.1418 126.4752 72.1418 126.4752 48.7318 127.9572 48.7318 136.4852 63.6798 137.8352 67.1368 137.9672 67.1368 137.6042 63.6798 137.6042 49.0938 139.9752 49.0938 139.9752 72.5038 138.4602 72.5038"></polygon>
                <polygon id="Fill-19" fill="#FFFFFF" points="169.213 49.0941 179.452 49.0941 179.452 51.3651 171.682 51.3651 171.682 59.1691 178.827 59.1691 178.827 61.4411 171.682 61.4411 171.682 69.8691 179.617 69.8691 179.617 72.1421 169.213 72.1421"></polygon>
                <path d="M210.8292,59.9593 L212.8052,59.9593 C214.0572,59.9593 215.0442,59.5753 215.7692,58.8073 C216.4932,58.0393 216.8552,56.8643 216.8552,55.2843 C216.8552,54.0773 216.5532,53.0783 215.9502,52.2873 C215.3462,51.4973 214.4522,51.1033 213.2672,51.1033 C212.8262,51.1033 212.3712,51.1183 211.8992,51.1513 C211.4282,51.1853 211.0702,51.2333 210.8292,51.3003 L210.8292,59.9593 Z M208.3602,49.3243 C209.0842,49.1483 209.8802,49.0223 210.7482,48.9453 C211.6142,48.8683 212.4102,48.8303 213.1352,48.8303 C213.9902,48.8303 214.8022,48.9353 215.5712,49.1443 C216.3402,49.3523 217.0092,49.7033 217.5792,50.1963 C218.1492,50.6903 218.6052,51.3393 218.9452,52.1393 C219.2862,52.9413 219.4562,53.9453 219.4562,55.1523 C219.4562,56.9753 219.0772,58.4343 218.3192,59.5313 C217.5632,60.6293 216.5582,61.3643 215.3082,61.7373 L216.5582,62.9553 L221.1012,72.1423 L218.2382,72.1423 L213.2992,62.1003 L210.8292,61.6053 L210.8292,72.1423 L208.3602,72.1423 L208.3602,49.3243 Z" id="Fill-21" fill="#FFFFFF"></path>
                <path d="M254.6222,60.6507 L260.9762,60.6507 L260.9762,70.7927 C260.3612,71.3627 259.5712,71.7967 258.6042,72.0927 C257.6392,72.3887 256.6632,72.5367 255.6762,72.5367 C254.4452,72.5367 253.3322,72.3067 252.3322,71.8457 C251.3342,71.3837 250.4832,70.6657 249.7822,69.6887 C249.0782,68.7127 248.5352,67.4777 248.1512,65.9847 C247.7672,64.4927 247.5752,62.7037 247.5752,60.6187 C247.5752,58.4667 247.8062,56.6397 248.2672,55.1357 C248.7282,53.6317 249.3482,52.4027 250.1272,51.4487 C250.9062,50.4937 251.7942,49.7967 252.7942,49.3577 C253.7922,48.9187 254.8182,48.6987 255.8722,48.6987 C256.9262,48.6987 257.8092,48.7707 258.5232,48.9127 C259.2352,49.0557 259.8462,49.2477 260.3512,49.4897 L259.7582,51.7277 C259.3182,51.4867 258.7972,51.2997 258.1932,51.1687 C257.5902,51.0367 256.8932,50.9707 256.1032,50.9707 C255.3342,50.9707 254.5992,51.1357 253.8962,51.4637 C253.1942,51.7937 252.5632,52.3377 252.0042,53.0937 C251.4442,53.8517 251.0002,54.8447 250.6702,56.0737 C250.3422,57.3037 250.1762,58.8187 250.1762,60.6187 C250.1762,63.9107 250.6972,66.3407 251.7402,67.9107 C252.7832,69.4797 254.2142,70.2647 256.0372,70.2647 C257.1792,70.2647 258.1222,69.9937 258.8692,69.4487 L258.8692,62.7917 L254.6222,62.1447 L254.6222,60.6507 Z" id="Fill-23" fill="#FFFFFF"></path>
                <polygon id="Fill-25" fill="#FFFFFF" points="293.67 62.9886 287.611 49.0936 290.443 49.0936 294.592 59.1356 295.02 61.1446 295.086 61.1446 295.514 59.0706 299.53 49.0936 302.197 49.0936 296.14 62.9556 296.14 72.1416 293.67 72.1416"></polygon>
                <g id="Group-29" transform="translate(0.000000, 0.947300)">
                    <mask id="mask-2" fill="white">
                        <use xlink:href="#path-1"></use>
                    </mask>
                    <g id="Clip-28"></g>
                    <path d="M35.9738,5.053 C18.8948,5.053 5.1098,18.951 4.7498,36.027 C4.4998,47.914 12.3678,63.491 32.2858,66.81 C32.8158,66.899 41.1148,63.679 43.6368,44.835 C43.7278,44.157 50.8218,58.324 50.8218,58.324 C50.8218,58.324 56.5498,52.769 55.0968,37.521 C55.0668,36.728 63.2078,50.193 63.2688,50.081 C63.7978,49.106 67.9558,41.956 66.5188,32.269 C64.1048,16 53.3938,6.019 35.9738,5.053 M35.9738,72 C15.7268,72 -0.0002,55.863 -0.0002,36.027 C-0.0002,16.191 16.1378,0.053 35.9738,0.053 C55.8098,0.053 71.9478,16.191 71.9478,36.027 C71.9478,57.699 55.8098,72 35.9738,72" id="Fill-27" fill="#FFFFFF" mask="url(#mask-2)"></path>
                </g>
            </g>
        </g>
    </g>
</svg>