<?xml version="1.0" encoding="UTF-8"?> <svg xmlns="http://www.w3.org/2000/svg" xmlns:xlink="http://www.w3.org/1999/xlink" width="262px" height="29px" viewBox="0 0 262 29"><!-- Generator: Sketch 53.2 (72643) - https://sketchapp.com --><title>Brand Compenets/Logo</title><desc>Created with Sketch.</desc><g id="Symbols" stroke="none" stroke-width="1" fill="none" fill-rule="evenodd"><g id="Components/Header-block" transform="translate(-43.000000, -68.000000)" fill="#FFFFFF"><g id="Brand-Compenets/Logo" transform="translate(43.000000, 68.000000)"><path d="M19.9400608,3.37688223 L17.3084081,5.81996586 C15.8188687,4.37315007 13.9799065,3.63404893 11.7286254,3.63404893 C9.51028987,3.63404893 7.64037879,4.40554902 6.14984103,5.91615025 C4.65930326,7.42776395 3.93150551,9.32411523 3.93150551,11.607229 C3.93150551,13.8893303 4.65930326,15.7866941 6.14984103,17.2972953 C7.64037879,18.8078965 9.51028987,19.5480102 11.7286254,19.5480102 C13.8211687,19.5480102 15.5962364,18.9050934 17.0238781,17.6182475 L17.0238781,13.5035803 L10.8730387,13.5035803 L10.8730387,9.93564548 L20.7637003,9.93564548 L20.7637003,18.9688788 C18.6402081,21.5729448 15.3756009,23.1807429 11.7286254,23.1807429 C8.46401822,23.1807429 5.67462604,22.0872782 3.39239607,19.9013612 C1.14111498,17.6830454 3.4283687e-13,14.9179971 3.4283687e-13,11.607229 C3.4283687e-13,8.29443597 1.14111498,5.5304002 3.39239607,3.31309679 C5.67462604,1.09376844 8.46401822,0.000303740194 11.7286254,0.000303740194 C14.9952293,0.000303740194 17.720727,1.12515492 19.9400608,3.37688223 Z M37.2210143,18.2296765 C38.1724426,17.2971941 38.648656,16.107545 38.648656,14.6931281 C38.648656,13.2776988 38.1724426,12.0890622 37.2210143,11.1565798 C36.3015332,10.2240974 35.128471,9.74216298 33.7657221,9.74216298 C32.4029733,9.74216298 31.2938055,10.2240974 30.3743244,11.1565798 C29.4867905,12.0890622 29.0425244,13.2776988 29.0425244,14.6931281 C29.0425244,16.107545 29.4867905,17.2971941 30.3743244,18.2296765 C31.2938055,19.1621589 32.4029733,19.6430808 33.7657221,19.6430808 C35.128471,19.6430808 36.3015332,19.1621589 37.2210143,18.2296765 Z M38.3631276,8.93826393 L38.3631276,6.5913647 L42.1668442,6.5913647 L42.1668442,17.9087243 C42.1668442,19.2907422 42.4833214,19.8050756 43.3399064,19.8050756 C43.5625387,19.8050756 43.8470687,19.7726766 44.132597,19.7402777 L44.132597,22.858677 C43.7202781,23.0196593 43.0863253,23.1158437 42.2616876,23.1158437 C41.3422065,23.1158437 40.6134104,22.9558739 40.0423537,22.6015103 C39.3455048,22.1195759 38.9022371,21.4766591 38.7425009,20.6403611 C37.6333332,22.3443436 35.794371,23.1806416 33.2585599,23.1806416 C31.0072788,23.1806416 29.1054205,22.3767426 27.5519866,20.737558 C26.0305,19.097361 25.2697567,17.1048253 25.2697567,14.6931281 C25.2697567,12.281431 26.0305,10.2878829 27.5519866,8.68109724 C29.1054205,7.04090019 31.0072788,6.23700114 33.2585599,6.23700114 C35.8273166,6.23700114 37.7601237,7.39526375 38.3631276,8.93826393 Z M48.3218767,22.7946891 L48.3218767,6.59116221 L52.0946444,6.59116221 L52.0946444,9.00285935 C52.8553877,7.29786439 54.5985083,6.27021007 56.8497894,6.27021007 C57.2930571,6.27021007 57.6734288,6.30159656 57.9919027,6.36639446 L57.9919027,10.0953116 C57.5156893,9.99912718 56.9765799,9.93534174 56.4065216,9.93534174 C53.7748688,9.93534174 52.0946444,11.6069253 52.0946444,14.2747766 L52.0946444,22.7946891 L48.3218767,22.7946891 Z M73.2426099,12.9567467 C73.2426099,11.9928778 72.830291,11.1565798 72.0376005,10.4822766 C71.2449099,9.77354947 70.3254288,9.42019837 69.2162611,9.42019837 C68.0431989,9.42019837 66.9969272,9.77354947 66.1413406,10.4488652 C65.2847556,11.1241809 64.8095406,11.9604789 64.7146972,12.9567467 L73.2426099,12.9567467 Z M60.8470862,14.6931281 C60.8470862,12.1214612 61.6397767,10.0641276 63.1932106,8.48872845 C64.7775933,6.91231684 66.774295,6.14182921 69.2162611,6.14182921 C71.5304383,6.14182921 73.4322966,6.91231684 74.8898888,8.48872845 C76.3814249,10.0641276 77.110221,11.9928778 77.110221,14.3073781 C77.110221,14.790325 77.0782738,15.2398605 77.0463265,15.6580095 L64.6188556,15.6580095 C64.7456461,18.2296765 66.6165556,19.90126 69.437895,19.90126 C71.0871705,19.90126 72.5138138,19.2907422 73.7497721,18.0373077 L76.0320021,20.28701 C74.2249871,22.2167727 72.0056533,23.1806416 69.3111044,23.1806416 C66.8072406,23.1806416 64.7456461,22.4091415 63.1932106,20.8985403 C61.6397767,19.3869266 60.8470862,17.361992 60.8470862,14.8217115 L60.8470862,14.6931281 Z M82.5027131,10.0953116 L80.5050131,10.0953116 L80.5050131,6.59116221 L82.5027131,6.59116221 L82.5027131,0.386762514 L86.307428,0.386762514 L86.307428,6.59116221 L89.8256163,6.59116221 L89.8256163,10.0953116 L86.307428,10.0953116 L86.307428,17.3293905 C86.307428,19.0981709 86.9084352,19.7400752 88.3041297,19.7400752 C88.7793447,19.7400752 89.2226124,19.7086887 89.6359297,19.6114919 L89.6359297,23.0518558 C89.0958219,23.1804391 88.4299219,23.2442246 87.6701769,23.2442246 C84.2148847,23.2442246 82.5027131,21.4126712 82.5027131,17.7475395 L82.5027131,10.0953116 Z M94.045146,22.7946891 L94.045146,0.386762514 L97.8179138,0.386762514 L97.8179138,8.84187704 C98.5477082,7.29786439 100.290829,6.27021007 102.477217,6.27021007 C106.155141,6.27021007 108.310581,8.74569265 108.310581,12.7641754 L108.310581,17.8761229 C108.310581,19.1295574 108.533213,19.5790929 109.3888,19.5790929 C109.579485,19.5790929 109.769171,19.5477064 109.927909,19.5153075 L109.927909,22.7622901 C109.546539,22.8918859 109.008428,22.9556714 108.279632,22.9556714 C105.77477,22.9556714 104.538811,21.5412546 104.538811,18.7124209 L104.538811,13.3109078 C104.538811,11.0915794 103.365749,9.70956153 101.3371,9.70956153 C99.275506,9.70956153 97.8179138,11.2535742 97.8179138,13.4708776 L97.8179138,22.7946891 L94.045146,22.7946891 Z M130.573704,16.1721404 C131.715818,18.4542417 133.553781,19.5790929 136.122538,19.5790929 C138.878985,19.5790929 139.86236,18.1008906 139.86236,16.6550873 C139.86236,15.657807 139.513936,14.9824913 138.594455,14.3719735 C137.674974,13.7290568 137.009074,13.4394911 135.360796,12.8279609 C133.332148,12.0574732 132.159085,11.4783419 130.890181,10.4496751 C129.623274,9.38860939 129.02027,7.9417936 129.02027,6.04442986 C129.02027,4.24426298 129.68617,2.79744719 130.986023,1.672596 C132.317823,0.546732349 133.934153,-8.8817842e-15 135.867959,-8.8817842e-15 C138.878985,-8.8817842e-15 141.162213,1.22204805 142.6837,3.63374519 L139.86236,5.59489437 C139.005775,4.27666193 137.706921,3.60134623 135.930855,3.60134623 C134.187734,3.60134623 132.919829,4.59761407 132.919829,5.98064442 C132.919829,6.91211435 133.3002,7.36367477 133.83931,7.90939465 C134.187734,8.16656135 135.076266,8.55332386 135.487587,8.77707914 L136.628702,9.22762709 L137.928555,9.74196049 C140.021098,10.6106574 141.510637,11.5431398 142.430118,12.5394077 C143.3496,13.5356755 143.824815,14.8852944 143.824815,16.5578904 C143.824815,20.5115753 141.130266,23.1804391 136.089592,23.1804391 C132.000348,23.1804391 128.989321,21.2516889 127.594625,18.0684917 L130.573704,16.1721404 Z M148.520558,6.59126345 L152.325273,6.59126345 L152.325273,17.9724085 C152.325273,19.2258431 152.577855,19.676391 153.43444,19.676391 C153.719969,19.676391 153.942601,19.6439921 154.10034,19.6115931 L154.10034,22.8585758 C153.719969,23.0205705 153.086016,23.1157425 152.198482,23.1157425 C149.756516,23.1157425 148.520558,21.7337246 148.520558,19.0010753 L148.520558,6.59126345 Z M148.140186,2.41179839 C148.140186,1.1259649 149.155509,0.128684595 150.422416,0.128684595 C151.659373,0.128684595 152.673697,1.1259649 152.673697,2.41179839 C152.673697,3.69864434 151.659373,4.69491218 150.422416,4.69491218 C149.155509,4.69491218 148.140186,3.69864434 148.140186,2.41179839 Z M158.222331,22.7946891 L158.222331,6.59116221 L161.995099,6.59116221 L161.995099,8.90566249 C162.660999,7.33127581 164.245382,6.27021007 166.274031,6.27021007 C168.462416,6.27021007 169.983902,7.20269246 170.776593,9.09904374 C171.695075,7.20269246 173.407247,6.27021007 175.912109,6.27021007 C179.367401,6.27021007 181.365101,8.74569265 181.365101,12.7641754 L181.365101,17.8761229 C181.365101,19.1295574 181.585737,19.5790929 182.442322,19.5790929 C182.632009,19.5790929 182.822694,19.5477064 182.981431,19.5153075 L182.981431,22.7622901 C182.60106,22.8918859 182.06195,22.9556714 181.332156,22.9556714 C178.828292,22.9556714 177.591335,21.5412546 177.591335,18.7124209 L177.591335,13.3109078 C177.591335,11.0915794 176.578009,9.70956153 174.801943,9.70956153 C173.026875,9.70956153 171.727023,11.2849607 171.727023,13.4708776 L171.727023,22.7946891 L167.955253,22.7946891 L167.955253,13.3109078 C167.955253,11.0915794 166.908982,9.70956153 165.101967,9.70956153 C163.325901,9.70956153 161.995099,11.2849607 161.995099,13.4708776 L161.995099,22.7946891 L158.222331,22.7946891 Z M192.180835,11.1562761 C191.261354,12.0887585 190.787137,13.2784076 190.787137,14.6928244 C190.787137,16.1082537 191.261354,17.2968903 192.180835,18.2293727 C193.132263,19.1618551 194.305325,19.6437896 195.668074,19.6437896 C197.030823,19.6437896 198.140989,19.1618551 199.028523,18.2293727 C199.948004,17.2968903 200.39227,16.1082537 200.39227,14.6928244 C200.39227,13.2784076 199.948004,12.0887585 199.028523,11.1562761 C198.140989,10.2237937 197.030823,9.74287171 195.668074,9.74287171 C194.305325,9.74287171 193.132263,10.2237937 192.180835,11.1562761 Z M191.071667,29 L187.266952,29 L187.266952,6.59106096 L191.071667,6.59106096 L191.071667,8.93897266 C191.610777,7.36357352 193.543584,6.23770987 196.175236,6.23770987 C198.426518,6.23770987 200.328376,7.04160892 201.850861,8.68180596 C203.403296,10.2885916 204.16404,12.2811273 204.16404,14.6928244 C204.16404,17.1045215 203.403296,19.0980697 201.850861,20.7372543 C200.328376,22.3450524 198.426518,23.1489514 196.175236,23.1489514 C193.543584,23.1489514 191.610777,22.0230877 191.071667,20.4476886 L191.071667,29 Z M209.652972,17.8440277 C210.381769,19.0012778 211.935202,19.8689623 213.869008,19.8689623 C215.866708,19.8689623 216.722295,19.0974622 216.722295,18.1011944 C216.722295,17.554462 216.341923,17.1049265 215.802814,16.8143484 C215.454389,16.5895807 214.788489,16.3648129 214.313274,16.2038306 C213.837061,16.0438608 212.886631,15.7542951 212.347521,15.5285149 C209.779763,14.597045 208.417014,13.2778001 208.417014,10.9632998 C208.417014,9.45269857 208.956124,8.29443597 210.033344,7.42776395 C211.142512,6.55906699 212.474312,6.10851904 214.059693,6.10851904 C216.309976,6.10851904 218.022147,6.91241809 219.227157,8.48882969 L217.102666,10.770931 C216.405817,9.87084757 215.359546,9.42029962 213.996797,9.42029962 C212.822736,9.42029962 212.061993,9.99943092 212.061993,10.8671154 C212.061993,11.4128353 212.347521,11.7034134 212.791787,11.9929791 C213.04437,12.1529489 213.678323,12.4101156 214.090642,12.5710979 C214.566855,12.6996812 215.454389,13.0206334 216.088342,13.2464136 C219.036472,14.3074793 220.367273,15.7542951 220.367273,18.0687954 C220.367273,21.0586114 218.148938,23.2131418 213.805114,23.2131418 C210.603402,23.2131418 208.226329,21.9586948 207.212005,19.9327477 L209.652972,17.8440277 Z M236.094693,18.3255571 C237.045123,17.3292893 237.521337,16.1396402 237.521337,14.6928244 C237.521337,13.2460086 237.045123,12.057372 236.094693,11.0914782 C235.144263,10.0952103 233.970203,9.61428836 232.576505,9.61428836 C231.149862,9.61428836 229.976799,10.0952103 229.025371,11.0914782 C228.10589,12.057372 227.629677,13.2460086 227.629677,14.6928244 C227.629677,16.1396402 228.10589,17.3292893 229.025371,18.3255571 C229.976799,19.2904385 231.149862,19.7733854 232.576505,19.7733854 C233.970203,19.7733854 235.144263,19.2904385 236.094693,18.3255571 Z M223.857907,14.6928244 C223.857907,12.2811273 224.714492,10.2237937 226.393718,8.5846091 C228.074941,6.94542452 230.134539,6.10912652 232.576505,6.10912652 C235.016474,6.10912652 237.07707,6.94542452 238.757295,8.5846091 C240.438518,10.2237937 241.294104,12.2811273 241.294104,14.6928244 C241.294104,17.1045215 240.438518,19.1618551 238.757295,20.8010397 C237.07707,22.4402243 235.016474,23.2775347 232.576505,23.2775347 C230.134539,23.2775347 228.074941,22.4402243 226.393718,20.8010397 C224.714492,19.1618551 223.857907,17.1045215 223.857907,14.6928244 Z M245.863656,22.7946891 L245.863656,6.59116221 L249.636423,6.59116221 L249.636423,8.90566249 C250.397167,7.33127581 252.172235,6.27021007 254.423516,6.27021007 C258.196283,6.27021007 260.382672,8.74569265 260.382672,12.7641754 L260.382672,17.8761229 C260.382672,19.1295574 260.605304,19.5790929 261.460891,19.5790929 C261.650577,19.5790929 261.841262,19.5477064 262,19.5153075 L262,22.7622901 C261.556732,22.8918859 261.017623,22.9556714 260.351723,22.9556714 C257.846861,22.9556714 256.610902,21.5412546 256.610902,18.7124209 L256.610902,13.3109078 C256.610902,11.0915794 255.373946,9.70956153 253.249455,9.70956153 C251.125963,9.70956153 249.636423,11.2535742 249.636423,13.4708776 L249.636423,22.7946891 L245.863656,22.7946891 Z" id="Brand-Compenets/Logo/Grey"></path></g></g></g></svg> 