<?xml version="1.0" encoding="UTF-8"?>
<svg width="49px" height="49px" viewBox="0 0 49 49" version="1.1" xmlns="http://www.w3.org/2000/svg" xmlns:xlink="http://www.w3.org/1999/xlink">
    <!-- Generator: Sketch 55.2 (78181) - https://sketchapp.com -->
    <title>Group 19</title>
    <desc>Created with Sketch.</desc>
    <g id="Layouts" stroke="none" stroke-width="1" fill="none" fill-rule="evenodd">
        <g id="Components" transform="translate(-1357.000000, -3171.000000)" fill="#577C70">
            <g id="Group-12" transform="translate(0.000000, 2959.000000)">
                <g id="Group-2" transform="translate(975.000000, 149.000000)">
                    <g id="Group-19" transform="translate(382.600000, 63.025000)">
                        <path d="M0.7,12.75 L3.6,13.25 C3.6,13.25 3.6,13.35 3.6,13.35 L1.9,15.75 C1.7,16.05 1.7,16.35 1.9,16.65 C2.6,17.55 3.4,18.35 4.3,19.05 C4.6,19.25 4.9,19.25 5.2,19.05 L7.6,17.35 C7.6,17.35 7.7,17.35 7.7,17.35 L8.2,20.25 C8.2,20.55 8.5,20.85 8.8,20.85 C9.3,20.95 9.9,20.95 10.5,20.95 C11.1,20.95 11.6,20.95 12.2,20.85 C12.5,20.75 12.8,20.55 12.8,20.25 L13.3,17.35 C13.3,17.35 13.4,17.35 13.4,17.35 L15.8,19.05 C16.1,19.25 16.4,19.25 16.7,19.05 C17.6,18.35 18.4,17.55 19.1,16.65 C19.3,16.35 19.3,16.05 19.1,15.75 L17.4,13.35 C17.4,13.35 17.4,13.25 17.4,13.25 L20.3,12.75 C20.6,12.75 20.9,12.45 20.9,12.15 C21,11.55 21,11.05 21,10.45 C21,9.85 21,9.35 20.9,8.75 C20.8,8.45 20.6,8.15 20.3,8.15 L17.4,7.65 C17.4,7.65 17.4,7.55 17.4,7.55 L19.1,5.15 C19.3,4.85 19.3,4.55 19.1,4.35 C18.4,3.45 17.6,2.65 16.7,1.95 C16.4,1.75 16.1,1.75 15.8,1.95 L13.4,3.65 C13.4,3.65 13.3,3.65 13.3,3.65 L12.8,0.75 C12.8,0.45 12.5,0.15 12.2,0.15 C11.1,-0.05 9.9,-0.05 8.8,0.15 C8.5,0.25 8.2,0.45 8.2,0.75 L7.7,3.65 C7.7,3.65 7.6,3.65 7.6,3.65 L5.2,1.95 C4.9,1.75 4.6,1.75 4.3,1.95 C3.4,2.65 2.6,3.45 1.9,4.35 C1.7,4.65 1.7,4.95 1.9,5.25 L3.6,7.65 C3.6,7.65 3.6,7.75 3.6,7.75 L0.7,8.25 C0.4,8.25 0.1,8.55 0.1,8.85 C0,9.45 0,9.95 0,10.55 C0,11.15 0,11.65 0.1,12.25 C0.2,12.45 0.4,12.75 0.7,12.75 Z M1.5,9.55 L4.3,9.15 C4.6,9.15 4.8,8.95 4.9,8.65 C5,8.35 5.1,8.15 5.2,7.95 C5.3,7.75 5.3,7.45 5.1,7.15 L3.5,4.85 C3.9,4.35 4.3,3.95 4.8,3.55 L7.1,5.15 C7.3,5.35 7.6,5.35 7.8,5.25 C8,5.15 8.3,5.05 8.6,4.95 C8.9,4.85 9,4.65 9.1,4.35 L9.5,1.55 C10.1,1.45 10.8,1.45 11.4,1.55 L11.8,4.35 C11.8,4.65 12,4.85 12.3,4.95 C12.6,5.05 12.8,5.15 13.1,5.25 C13.3,5.35 13.6,5.35 13.9,5.15 L16.2,3.55 C16.7,3.95 17.1,4.35 17.5,4.85 L15.9,7.15 C15.7,7.35 15.7,7.65 15.8,7.95 C15.9,8.15 16,8.45 16.1,8.75 C16.2,9.05 16.4,9.15 16.7,9.25 L19.5,9.65 C19.5,9.95 19.6,10.25 19.6,10.55 C19.6,10.85 19.6,11.15 19.5,11.45 L16.7,11.85 C16.4,11.85 16.2,12.05 16.1,12.35 C16,12.65 15.9,12.85 15.8,13.15 C15.7,13.45 15.7,13.65 15.9,13.95 L17.5,16.25 C17.1,16.75 16.7,17.15 16.2,17.55 L13.9,15.95 C13.7,15.75 13.4,15.75 13.1,15.85 C12.9,15.95 12.6,16.05 12.3,16.15 C12,16.25 11.9,16.45 11.8,16.75 L11.4,19.55 C10.8,19.65 10.1,19.65 9.5,19.55 L9.1,16.75 C9.1,16.45 8.9,16.25 8.6,16.15 C8.3,16.05 8.1,15.95 7.9,15.85 C7.7,15.75 7.4,15.75 7.1,15.95 L4.8,17.55 C4.3,17.15 3.9,16.75 3.5,16.25 L5.1,13.95 C5.3,13.75 5.3,13.45 5.2,13.15 C5.1,12.95 5,12.65 4.9,12.45 C4.8,12.15 4.6,12.05 4.3,11.95 L1.5,11.55 C1.5,11.25 1.5,10.95 1.5,10.65 C1.5,10.35 1.5,9.85 1.5,9.55 Z" id="Shape"></path>
                        <path d="M10.4,13.65 C12.1,13.65 13.6,12.25 13.6,10.45 C13.6,8.75 12.2,7.25 10.4,7.25 C8.7,7.25 7.2,8.65 7.2,10.45 C7.3,12.15 8.7,13.65 10.4,13.65 Z M10.4,8.75 C11.3,8.75 12.1,9.55 12.1,10.45 C12.1,11.35 11.3,12.15 10.4,12.15 C9.5,12.15 8.7,11.35 8.7,10.45 C8.7,9.55 9.5,8.75 10.4,8.75 Z" id="Shape"></path>
                        <path d="M43.6,9.45 L43.6,26.95 C43.6,27.35 43.9,27.65 44.3,27.65 C44.7,27.65 45,27.35 45,26.95 L45,9.45 C45,9.05 44.7,8.75 44.3,8.75 C43.9,8.75 43.6,9.05 43.6,9.45 Z" id="Path"></path>
                        <path d="M36.8,16.25 L36.8,24.95 C36.8,25.35 37.1,25.65 37.5,25.65 C37.9,25.65 38.2,25.35 38.2,24.95 L38.2,16.25 C38.2,15.85 37.9,15.55 37.5,15.55 C37.1,15.55 36.8,15.85 36.8,16.25 Z" id="Path"></path>
                        <path d="M30.1,20.15 L30.1,26.95 C30.1,27.35 30.4,27.65 30.8,27.65 C31.2,27.65 31.5,27.35 31.5,26.95 L31.5,20.15 C31.5,19.75 31.2,19.45 30.8,19.45 C30.4,19.45 30.1,19.75 30.1,20.15 Z" id="Path"></path>
                        <path d="M24,23.35 C23.6,23.35 23.3,23.65 23.3,24.05 L23.3,43.65 L18,43.65 L18,28.85 C18,28.45 17.7,28.15 17.3,28.15 C16.9,28.15 16.6,28.45 16.6,28.85 L16.6,43.65 L11.3,43.65 L11.3,31.75 C11.3,31.35 11,31.05 10.6,31.05 C10.2,31.05 9.9,31.35 9.9,31.75 L9.9,43.65 L4.4,43.65 L4.4,33.95 L14.5,23.85 L16.7,26.05 C17,26.35 17.5,26.35 17.7,26.05 L29.3,14.45 L31.7,16.85 C31.8,16.95 32,17.05 32.2,17.05 C32.4,17.05 32.6,16.95 32.7,16.85 L44.8,4.75 L45.8,5.75 L46.9,1.55 L42.7,2.65 L43.7,3.65 L32.1,15.25 L29.7,12.85 C29.6,12.75 29.4,12.65 29.2,12.65 C29,12.65 28.8,12.75 28.7,12.85 L17.1,24.45 L14.9,22.25 C14.6,21.95 14.2,21.95 13.9,22.25 L4.4,31.85 L4.4,24.05 C4.4,23.65 4.1,23.35 3.7,23.35 L0.8,23.35 C0.4,23.35 0.1,23.65 0.1,24.05 C0.1,24.45 0.4,24.75 0.8,24.75 L3,24.75 L3,30.05 L0.8,30.05 C0.4,30.05 0.1,30.35 0.1,30.75 C0.1,31.15 0.4,31.45 0.8,31.45 L3,31.45 L3,36.75 L0.8,36.75 C0.4,36.75 0.1,37.05 0.1,37.45 C0.1,37.85 0.4,38.15 0.8,38.15 L3,38.15 L3,43.45 L0.8,43.45 C0.4,43.45 0.1,43.75 0.1,44.15 C0.1,44.55 0.4,44.85 0.8,44.85 L3,44.85 L3,47.05 C3,47.45 3.3,47.75 3.7,47.75 C4.1,47.75 4.4,47.45 4.4,47.05 L4.4,44.85 L24,44.85 C24.4,44.85 24.7,44.55 24.7,44.15 L24.7,23.75 C24.7,23.65 24.4,23.35 24,23.35 Z" id="Path"></path>
                        <path d="M47.9,35.95 C47.9,35.65 47.6,35.35 47.3,35.35 L44.4,34.85 C44.4,34.85 44.4,34.75 44.4,34.75 L46.1,32.35 C46.3,32.05 46.3,31.75 46.1,31.55 C45.4,30.65 44.6,29.85 43.7,29.15 C43.4,28.95 43.1,28.95 42.8,29.15 L40.4,30.85 C40.4,30.85 40.3,30.85 40.3,30.85 L39.8,27.95 C39.8,27.65 39.5,27.35 39.2,27.35 C38.1,27.15 36.9,27.15 35.8,27.35 C35.5,27.45 35.3,27.65 35.2,27.95 L34.7,30.85 C34.7,30.85 34.6,30.85 34.6,30.85 L32.2,29.15 C31.9,28.95 31.6,28.95 31.3,29.15 C30.4,29.85 29.6,30.65 28.9,31.55 C28.7,31.85 28.7,32.15 28.9,32.35 L30.6,34.75 C30.6,34.75 30.6,34.85 30.6,34.85 L27.7,35.35 C27.4,35.35 27.1,35.65 27.1,35.95 C27,36.55 27,37.05 27,37.65 C27,38.25 27,38.75 27.1,39.35 C27.2,39.65 27.4,39.85 27.7,39.95 L30.6,40.45 C30.6,40.45 30.6,40.55 30.6,40.55 L28.9,42.95 C28.7,43.25 28.7,43.55 28.9,43.85 C29.6,44.75 30.4,45.55 31.3,46.25 C31.6,46.45 31.9,46.45 32.2,46.25 L34.6,44.55 C34.6,44.55 34.7,44.55 34.7,44.55 L35.2,47.45 C35.2,47.75 35.5,48.05 35.8,48.05 C36.4,48.15 36.9,48.15 37.5,48.15 C38.1,48.15 38.6,48.15 39.2,48.05 C39.5,47.95 39.7,47.75 39.8,47.45 L40.3,44.55 C40.3,44.55 40.4,44.55 40.4,44.55 L42.8,46.25 C43.1,46.45 43.4,46.45 43.7,46.25 C44.6,45.55 45.4,44.75 46.1,43.85 C46.3,43.55 46.3,43.25 46.1,42.95 L44.4,40.55 C44.4,40.55 44.4,40.45 44.4,40.45 L47.3,39.95 C47.6,39.95 47.9,39.65 47.9,39.35 C48,38.75 48,38.25 48,37.65 C48,37.05 47.9,36.45 47.9,35.95 Z M46.5,38.55 L43.7,38.95 C43.4,38.95 43.2,39.15 43.1,39.45 C43,39.75 42.9,39.95 42.8,40.25 C42.7,40.45 42.7,40.75 42.9,41.05 L44.5,43.35 C44.1,43.85 43.7,44.25 43.2,44.65 L40.9,43.05 C40.7,42.85 40.4,42.85 40.1,42.95 C39.9,43.05 39.6,43.15 39.3,43.25 C39,43.35 38.9,43.55 38.8,43.85 L38.4,46.65 C37.8,46.75 37.1,46.75 36.5,46.65 L36.1,43.85 C36.1,43.55 35.9,43.35 35.6,43.25 C35.3,43.15 35.1,43.05 34.9,42.95 C34.7,42.85 34.4,42.85 34.1,43.05 L31.8,44.65 C31.3,44.25 30.9,43.85 30.5,43.35 L32.1,41.05 C32.3,40.85 32.3,40.55 32.2,40.25 C32.1,40.05 32,39.75 31.9,39.55 C31.8,39.25 31.6,39.15 31.3,39.05 L28.5,38.65 C28.5,38.35 28.5,38.05 28.5,37.75 C28.5,37.45 28.5,37.15 28.5,36.85 L31.3,36.45 C31.6,36.45 31.8,36.25 31.9,35.95 C32,35.65 32.1,35.45 32.2,35.25 C32.3,35.05 32.3,34.75 32.1,34.45 L30.5,32.15 C30.9,31.65 31.3,31.25 31.8,30.85 L34.1,32.45 C34.3,32.65 34.6,32.65 34.8,32.55 C35,32.45 35.3,32.35 35.6,32.25 C35.9,32.15 36,31.95 36.1,31.65 L36.5,28.85 C37.1,28.75 37.8,28.75 38.4,28.85 L38.8,31.65 C38.8,31.95 39,32.15 39.3,32.25 C39.6,32.35 39.8,32.45 40.1,32.55 C40.3,32.65 40.6,32.65 40.9,32.45 L43.2,30.85 C43.7,31.25 44.1,31.65 44.5,32.15 L42.9,34.45 C42.7,34.65 42.7,34.95 42.8,35.25 C42.9,35.45 43,35.75 43.1,36.05 C43.2,36.35 43.4,36.45 43.7,36.55 L46.5,36.95 C46.5,37.25 46.6,37.55 46.6,37.85 C46.5,37.95 46.5,38.25 46.5,38.55 Z" id="Shape"></path>
                        <path d="M37.6,34.45 C35.9,34.45 34.4,35.85 34.4,37.65 C34.4,39.45 35.8,40.85 37.6,40.85 C39.4,40.85 40.8,39.45 40.8,37.65 C40.8,35.85 39.3,34.45 37.6,34.45 Z M37.6,39.35 C36.7,39.35 35.9,38.55 35.9,37.65 C35.9,36.75 36.7,35.95 37.6,35.95 C38.5,35.95 39.3,36.75 39.3,37.65 C39.3,38.55 38.5,39.35 37.6,39.35 Z" id="Shape"></path>
                    </g>
                </g>
            </g>
        </g>
    </g>
</svg>