<?xml version="1.0" encoding="UTF-8"?>
<svg width="70px" height="70px" viewBox="0 0 70 70" version="1.1" xmlns="http://www.w3.org/2000/svg" xmlns:xlink="http://www.w3.org/1999/xlink">
    <!-- Generator: Sketch 54 (76480) - https://sketchapp.com -->
    <title>digital-consulancy</title>
    <desc>Created with Sketch.</desc>
    <g id="Layouts" stroke="none" stroke-width="1" fill="none" fill-rule="evenodd">
        <g id="Home-v2-head-CTA" transform="translate(-223.000000, -1995.000000)">
            <g id="digital-consulancy" transform="translate(223.000000, 1995.000000)">
                <circle id="Oval" fill="#402039" cx="35" cy="35" r="35"></circle>
                <path d="M48.3681449,36.5520833 C48.6588993,35.4583333 48.8042765,34.3645833 48.8042765,33.1979167 C48.8042765,32.1041667 48.6588993,31.0104167 48.3681449,29.9895833 C51.5664432,27.2916667 53.6744126,24.7395833 52.8021494,23.28125 C52.0752634,21.96875 49.3857853,22.1145833 44.8064036,23.7916667 C42.4076799,21.4583333 39.136693,20 35.5022631,20 C31.8678332,20 28.5968463,21.4583333 26.1981226,23.7916667 C21.6914295,22.1145833 19.0019514,21.96875 18.2023768,23.28125 C17.4754908,24.5208333 18.711197,26.4895833 21.8368067,29.2604167 C22.1275611,29.4791667 22.4183155,29.7708333 22.7090699,29.9895833 C22.4183155,31.0104167 22.2729383,32.1041667 22.2729383,33.1979167 C22.2729383,34.3645833 22.4183155,35.4583333 22.7090699,36.5520833 C19.0019514,39.6875 17.4754908,41.9479167 18.2023768,43.2604167 C18.5658198,43.84375 19.2200172,44.1354167 20.3103461,44.1354167 C21.4733637,44.1354167 23.0725128,43.7708333 25.1077936,43.1145833 C25.4712366,42.96875 25.8346796,42.8958333 26.1981226,42.75 C27.2884515,43.9166667 27.8699603,45.4479167 27.8699603,47.125 L27.8699603,50.7708333 C27.8699603,51.4270833 28.4514691,52.0104167 29.1056665,52.0104167 L29.3237323,52.0104167 C29.6144867,53.6875 30.99557,55 32.7400964,55 L38.1190526,55 C39.863579,55 41.3173509,53.6875 41.5354167,52.0104167 L41.7534825,52.0104167 C42.4076799,52.0104167 42.9891887,51.4270833 42.9891887,50.7708333 L42.9891887,46.9791667 C42.9891887,45.375 43.5706974,43.9166667 44.5883378,42.75 C44.9517808,42.8958333 45.3152238,43.0416667 45.6786668,43.1145833 C47.7139475,43.7708333 49.3130967,44.1354167 50.4761142,44.1354167 C51.5664432,44.1354167 52.2933292,43.84375 52.5840836,43.2604167 C53.601724,41.9479167 52.147952,39.6875 48.3681449,36.5520833 Z M51.9298862,23.8645833 C52.2933292,24.5208333 50.9849344,26.4166667 48.0773905,28.96875 C47.5685703,27.3645833 46.6963072,25.9791667 45.6786668,24.7395833 C50.1126713,23.1354167 51.7118204,23.4270833 51.9298862,23.8645833 Z M35.5749517,21.0208333 C41.0265965,21.0208333 45.6786668,24.6666667 47.2051273,29.625 C44.8064036,31.59375 41.4627281,33.9270833 37.319478,36.3333333 C36.7379692,36.6979167 36.1564605,36.9895833 35.5749517,37.28125 C34.9934429,36.9895833 34.4119341,36.625 33.8304253,36.3333333 C30.0506182,34.1458333 26.6342541,31.8125 23.944776,29.625 C25.5439252,24.6666667 30.1959954,21.0208333 35.5749517,21.0208333 Z M22.6363813,28.4583333 C19.4380829,25.6145833 19.0019514,24.2291667 19.2200172,23.7916667 C19.4380829,23.3541667 21.1099207,23.0625 25.4712366,24.59375 C24.4535962,25.8333333 23.581333,27.2916667 23.0725128,28.8229167 C22.9998242,28.75 22.7817585,28.6041667 22.6363813,28.4583333 Z M24.9624164,42.1666667 C20.9645435,43.4791667 19.5107715,43.1875 19.2200172,42.8229167 C19.0019514,42.3854167 19.5107715,40.8541667 23.1452014,37.71875 C23.7267102,39.25 24.5262848,40.7083333 25.6166138,41.9479167 C25.398548,42.0208333 25.1804822,42.09375 24.9624164,42.1666667 Z M23.4359558,33.2708333 C23.4359558,32.3958333 23.5086444,31.59375 23.7267102,30.7916667 C26.3434997,32.90625 29.6871752,35.1666667 33.3942937,37.28125 C33.7577367,37.5 34.1938683,37.71875 34.5573113,37.9375 C31.7951446,39.3958333 29.1056665,40.6354167 26.7796313,41.5833333 C24.5989734,39.25 23.4359558,36.3333333 23.4359558,33.2708333 Z M38.3371184,53.90625 L32.9581622,53.90625 C31.7951446,53.90625 30.8501928,53.1041667 30.632127,52.0104167 L40.7358421,52.0104167 C40.4450877,53.1041667 39.500136,53.90625 38.3371184,53.90625 Z M42.1896141,47.0520833 L42.1896141,48.1458333 L31.4317016,48.1458333 C31.1409472,48.1458333 30.9228814,48.3645833 30.9228814,48.65625 C30.9228814,48.9479167 31.1409472,49.1666667 31.4317016,49.1666667 L42.1896141,49.1666667 L42.1896141,50.7708333 C42.1896141,50.84375 42.1169255,50.9166667 42.0442369,50.9166667 L29.3237323,50.9166667 C29.2510437,50.9166667 29.1783551,50.84375 29.1783551,50.7708333 L29.1783551,47.125 C29.1783551,46.8333333 29.1783551,46.5416667 29.1056665,46.25 L42.2623027,46.25 C42.1896141,46.5416667 42.1896141,46.7604167 42.1896141,47.0520833 Z M42.4076799,45.2291667 L28.8876007,45.2291667 C28.5968463,44.2083333 28.1607147,43.2604167 27.4338287,42.3854167 C29.905241,41.4375 32.7400964,40.125 35.5749517,38.5208333 C38.4824956,40.0520833 41.2446623,41.4375 43.7887632,42.3854167 C43.1345659,43.1875 42.6984343,44.1354167 42.4076799,45.2291667 Z M44.5156492,41.5104167 C42.1169255,40.6354167 39.500136,39.3958333 36.7379692,37.8645833 C37.1014122,37.6458333 37.5375438,37.4270833 37.9009868,37.2083333 C40.9539079,35.4583333 44.5883378,33.0520833 47.4958817,30.71875 C47.6412589,31.5208333 47.7866361,32.3229167 47.7866361,33.1979167 C47.7866361,36.3333333 46.6236186,39.25 44.5156492,41.5104167 Z M51.9298862,42.75 C51.7118204,43.1145833 50.2580485,43.4791667 46.187487,42.09375 C45.9694212,42.0208333 45.7513554,41.9479167 45.5332896,41.875 C46.6236186,40.6354167 47.4231931,39.1770833 48.0047019,37.6458333 C51.6391318,40.78125 52.2206406,42.3854167 51.9298862,42.75 Z" id="big-idea-white" fill="#FFFFFF"></path>
            </g>
        </g>
    </g>
</svg>