<?xml version="1.0" encoding="UTF-8"?>
<svg width="39px" height="39px" viewBox="0 0 39 39" version="1.1" xmlns="http://www.w3.org/2000/svg" xmlns:xlink="http://www.w3.org/1999/xlink">
    <!-- Generator: Sketch 53.2 (72643) - https://sketchapp.com -->
    <title>Group 15</title>
    <desc>Created with Sketch.</desc>
    <g id="Layouts" stroke="none" stroke-width="1" fill="none" fill-rule="evenodd">
        <g id="Home-v2" transform="translate(-585.000000, -4707.000000)">
            <g id="Group-35" transform="translate(-7.000000, 4055.000000)">
                <g id="Group-6" transform="translate(293.000000, 605.000000)">
                    <g id="Stacked-Group" transform="translate(0.000000, 40.000000)">
                        <g id="Group-15" transform="translate(299.000000, 7.000000)">
                            <path d="M19.4683442,-6.39488462e-14 C16.7775822,-6.39488462e-14 14.2517345,0.50781039 11.8907252,1.5234413 C9.52971584,2.53907221 7.47210623,3.92399766 5.71783558,5.67826831 C3.96356696,7.43253896 2.5720424,9.49014857 1.5432224,11.8511579 C0.514402403,14.2121673 0,16.7380149 0,19.4287769 C0,22.1195388 0.514402403,24.6453865 1.5432224,27.0063958 C2.5720424,29.3674052 3.96356696,31.4250148 5.71783558,33.1792855 C7.47210623,34.9335541 9.52971584,36.3250786 11.8907252,37.3538986 C14.2517345,38.3827186 16.7775822,38.897121 19.4683442,38.897121 C22.1591061,38.897121 24.6849538,38.3827186 27.0459631,37.3538986 C29.4069725,36.3250786 31.4645821,34.9335541 33.2188527,33.1792855 C34.9731234,31.4250148 36.3646434,29.3674052 37.3934634,27.0063958 C38.4222884,24.6453865 38.9366883,22.1195388 38.9366883,19.4287769 C38.9366883,16.7380149 38.4222884,14.2121673 37.3934634,11.8511579 C36.3646434,9.49014857 34.9731234,7.43253896 33.2188527,5.67826831 C31.4645821,3.92399766 29.4069725,2.53907221 27.0459631,1.5234413 C24.6849538,0.50781039 22.1591061,-6.39488462e-14 19.4683442,-6.39488462e-14 Z" id="Path" fill="#3A5A98"></path>
                            <path d="M24.0584416,13.4141665 L21.1698483,13.4141665 C20.9851858,13.4141665 20.8137175,13.5196843 20.6554383,13.7307249 C20.4971591,13.9417656 20.4180195,14.1923735 20.4180195,14.4825538 L20.4180195,16.6193182 L24.0584416,16.6193182 L23.5440366,19.6266234 L20.4180195,19.6266234 L20.4180195,28.648539 L16.9754439,28.648539 L16.9754439,19.6266234 L13.8494318,19.6266234 L13.8494318,16.6193182 L16.9754439,16.6193182 L16.9754439,14.8386795 C16.9754439,13.5724406 17.3711419,12.4842799 18.1625431,11.5741718 C18.9539392,10.6640587 19.9563658,10.2090148 21.1698483,10.2090148 L24.0584416,10.2090148 L24.0584416,13.4141665 Z" id="Path" fill="#E0E7EA"></path>
                        </g>
                    </g>
                </g>
            </g>
        </g>
    </g>
</svg>