<?xml version="1.0" encoding="UTF-8"?>
<svg width="49px" height="49px" viewBox="0 0 49 49" version="1.1" xmlns="http://www.w3.org/2000/svg" xmlns:xlink="http://www.w3.org/1999/xlink">
    <!-- Generator: Sketch 55.2 (78181) - https://sketchapp.com -->
    <title>Group 13</title>
    <desc>Created with Sketch.</desc>
    <g id="Layouts" stroke="none" stroke-width="1" fill="none" fill-rule="evenodd">
        <g id="Components" transform="translate(-1093.000000, -3171.000000)" fill="#577C70">
            <g id="Group-12" transform="translate(0.000000, 2959.000000)">
                <g id="Group-2" transform="translate(975.000000, 149.000000)">
                    <g id="Group-13" transform="translate(118.300000, 63.275000)">
                        <path d="M45.2,6.8 C44.8,6.8 44.5,7.1 44.5,7.5 C44.5,7.9 44.8,8.2 45.2,8.2 C45.9,8.2 46.4,8.7 46.4,9.4 L46.4,34.9 L41.6,34.9 L41.6,0.7 C41.6,0.3 41.3,-3.19744231e-14 40.9,-3.19744231e-14 L7,-3.19744231e-14 C6.6,-3.19744231e-14 6.3,0.3 6.3,0.7 L6.3,34.9 L1.5,34.9 L1.5,9.4 C1.5,8.7 2,8.2 2.7,8.2 C3.1,8.2 3.4,7.9 3.4,7.5 C3.4,7.1 3.1,6.8 2.7,6.8 C1.2,6.8 -7.21200877e-13,8 -7.21200877e-13,9.5 L-7.21200877e-13,39.6 C-7.21200877e-13,41.1 1.2,42.3 2.7,42.3 L14.6,42.3 L14.6,46.7 L9.5,46.7 C9.1,46.7 8.8,47 8.8,47.4 C8.8,47.8 9.1,48.1 9.5,48.1 L38.6,48.1 C39,48.1 39.3,47.8 39.3,47.4 C39.3,47 39,46.7 38.6,46.7 L33.5,46.7 L33.5,42.3 L45.4,42.3 C46.9,42.3 48.1,41.1 48.1,39.6 L48.1,9.5 C47.9,8 46.7,6.8 45.2,6.8 Z M7.7,1.4 L40.2,1.4 L40.2,6.7 L7.7,6.7 L7.7,1.4 Z M7.7,8.2 L40.2,8.2 L40.2,16.5 L35.7,20.2 L30.9,18.6 C30.7,18.5 30.4,18.6 30.2,18.7 L24.6,23.7 L19,22.5 C18.8,22.5 18.7,22.5 18.5,22.6 L12.8,25.5 L7.7,24.7 L7.7,8.2 L7.7,8.2 Z M40.2,18.4 L40.2,34.9 L36.5,34.9 L36.5,21.4 L40.2,18.4 Z M35,21.5 L35,34.9 L31.3,34.9 L31.3,20.3 L35,21.5 Z M29.9,20.9 L29.9,34.9 L25.4,34.9 L25.4,24.9 L29.9,20.9 Z M24,25.1 L24,34.9 L19.5,34.9 L19.5,24.1 L24,25.1 Z M18,24.4 L18,34.9 L13.5,34.9 L13.5,26.7 L18,24.4 Z M7.7,26.1 L12.2,26.8 L12.2,34.9 L7.7,34.9 L7.7,26.1 Z M31.9,46.5 L15.9,46.5 L15.9,42.1 L31.9,42.1 L31.9,46.5 Z M46.5,39.5 C46.5,40.2 46,40.7 45.3,40.7 L2.6,40.7 C1.9,40.7 1.4,40.2 1.4,39.5 L1.4,36.3 L46.5,36.3 L46.5,39.5 L46.5,39.5 Z" id="Shape"></path>
                        <path d="M27.8,3.6 C27.7,3.7 27.6,3.9 27.6,4.1 C27.6,4.3 27.7,4.5 27.8,4.6 C27.9,4.7 28.1,4.8 28.3,4.8 C28.5,4.8 28.7,4.7 28.8,4.6 C28.9,4.5 29,4.3 29,4.1 C29,3.9 28.9,3.7 28.8,3.6 C28.5,3.3 28,3.3 27.8,3.6 Z" id="Path"></path>
                        <path d="M32.2,3.4 C31.8,3.4 31.5,3.7 31.5,4.1 C31.5,4.5 31.8,4.8 32.2,4.8 C32.6,4.8 32.9,4.5 32.9,4.1 C32.9,3.7 32.6,3.4 32.2,3.4 Z" id="Path"></path>
                        <path d="M35.5,3.6 C35.4,3.7 35.3,3.9 35.3,4.1 C35.3,4.3 35.4,4.5 35.5,4.6 C35.6,4.7 35.8,4.8 36,4.8 C36.2,4.8 36.4,4.7 36.5,4.6 C36.6,4.5 36.7,4.3 36.7,4.1 C36.7,3.9 36.6,3.7 36.5,3.6 C36.3,3.3 35.8,3.3 35.5,3.6 Z" id="Path"></path>
                        <path d="M24.8,13.1 L30.6,13.1 C31,13.1 31.3,12.8 31.3,12.4 C31.3,12 31,11.7 30.6,11.7 L24.8,11.7 C24.4,11.7 24.1,12 24.1,12.4 C24.1,12.8 24.4,13.1 24.8,13.1 Z" id="Path"></path>
                        <path d="M11.8,13.1 L20.9,13.1 C21.3,13.1 21.6,12.8 21.6,12.4 C21.6,12 21.3,11.7 20.9,11.7 L11.8,11.7 C11.4,11.7 11.1,12 11.1,12.4 C11.1,12.8 11.4,13.1 11.8,13.1 Z" id="Path"></path>
                        <path d="M24.8,16.5 L20,16.5 C19.6,16.5 19.3,16.8 19.3,17.2 C19.3,17.6 19.6,17.9 20,17.9 L24.8,17.9 C25.2,17.9 25.5,17.6 25.5,17.2 C25.5,16.8 25.2,16.5 24.8,16.5 Z" id="Path"></path>
                        <path d="M16.8,17.2 C16.8,16.8 16.5,16.5 16.1,16.5 L11.8,16.5 C11.4,16.5 11.1,16.8 11.1,17.2 C11.1,17.6 11.4,17.9 11.8,17.9 L16.1,17.9 C16.5,17.9 16.8,17.6 16.8,17.2 Z" id="Path"></path>
                    </g>
                </g>
            </g>
        </g>
    </g>
</svg>