<?xml version="1.0" encoding="UTF-8"?>
<svg width="70px" height="70px" viewBox="0 0 70 70" version="1.1" xmlns="http://www.w3.org/2000/svg" xmlns:xlink="http://www.w3.org/1999/xlink">
    <!-- Generator: Sketch 54 (76480) - https://sketchapp.com -->
    <title>investments</title>
    <desc>Created with Sketch.</desc>
    <g id="Layouts" stroke="none" stroke-width="1" fill="none" fill-rule="evenodd">
        <g id="Home-v2-head-CTA" transform="translate(-223.000000, -2102.000000)">
            <g id="investments" transform="translate(223.000000, 2102.000000)">
                <circle id="Oval" fill="#402039" cx="35" cy="35" r="35"></circle>
                <g id="browser-testing-white" transform="translate(17.000000, 17.000000)" fill="#FFFFFF">
                    <path d="M35.044898,0.514285714 L0.881632653,0.514285714 C0.587755102,0.514285714 0.367346939,0.734693878 0.367346939,1.02857143 L0.367346939,26.8163265 C0.367346939,27.1102041 0.587755102,27.3306122 0.881632653,27.3306122 C1.1755102,27.3306122 1.39591837,27.1102041 1.39591837,26.8163265 L1.39591837,6.6122449 L34.5306122,6.6122449 L34.5306122,8.15510204 C34.5306122,8.44897959 34.7510204,8.66938776 35.044898,8.66938776 C35.3387755,8.66938776 35.5591837,8.44897959 35.5591837,8.15510204 L35.5591837,1.10204082 C35.5591837,0.734693878 35.3387755,0.514285714 35.044898,0.514285714 Z M34.4571429,5.51020408 L1.32244898,5.51020408 L1.32244898,1.61632653 L34.4571429,1.61632653 L34.4571429,5.51020408 Z" id="Shape"></path>
                    <path d="M31.5918367,4.11428571 C31.7387755,4.11428571 31.8857143,4.04081633 31.9591837,3.96734694 C32.0326531,3.89387755 32.1061224,3.74693878 32.1061224,3.6 C32.1061224,3.45306122 32.0326531,3.30612245 31.9591837,3.23265306 C31.7387755,3.0122449 31.444898,3.0122449 31.2244898,3.23265306 C31.1510204,3.30612245 31.077551,3.45306122 31.077551,3.6 C31.077551,3.74693878 31.1510204,3.89387755 31.2244898,3.96734694 C31.2979592,4.04081633 31.444898,4.11428571 31.5918367,4.11428571 Z" id="Path"></path>
                    <path d="M28.7265306,4.11428571 C29.0204082,4.11428571 29.2408163,3.89387755 29.2408163,3.6 C29.2408163,3.30612245 29.0204082,3.08571429 28.7265306,3.08571429 C28.4326531,3.08571429 28.2122449,3.30612245 28.2122449,3.6 C28.2122449,3.82040816 28.4326531,4.11428571 28.7265306,4.11428571 Z" id="Path"></path>
                    <path d="M25.8612245,4.11428571 C26.0081633,4.11428571 26.155102,4.04081633 26.2285714,3.96734694 C26.3020408,3.89387755 26.3755102,3.74693878 26.3755102,3.6 C26.3755102,3.45306122 26.3020408,3.30612245 26.2285714,3.23265306 C26.0081633,3.0122449 25.7142857,3.0122449 25.4938776,3.23265306 C25.4204082,3.30612245 25.3469388,3.45306122 25.3469388,3.6 C25.3469388,3.74693878 25.4204082,3.89387755 25.4938776,3.96734694 C25.6408163,4.04081633 25.7142857,4.11428571 25.8612245,4.11428571 Z" id="Path"></path>
                    <path d="M11.9020408,9.77142857 L5.06938776,9.77142857 C4.7755102,9.77142857 4.55510204,9.99183673 4.55510204,10.2857143 L4.55510204,18.8081633 C4.55510204,19.1020408 4.7755102,19.322449 5.06938776,19.322449 L13.5918367,19.322449 C13.8857143,19.322449 14.1061224,19.1020408 14.1061224,18.8081633 L14.1061224,17.6326531 C14.1061224,17.3387755 13.8857143,17.1183673 13.5918367,17.1183673 C13.2979592,17.1183673 13.077551,17.3387755 13.077551,17.6326531 L13.077551,18.2938776 L5.58367347,18.2938776 L5.58367347,10.8 L11.9020408,10.8 C12.1959184,10.8 12.4163265,10.5795918 12.4163265,10.2857143 C12.4897959,10.0653061 12.1959184,9.77142857 11.9020408,9.77142857 Z" id="Path"></path>
                    <path d="M21.5265306,22.4081633 L21.5265306,30.9306122 C21.5265306,31.2244898 21.7469388,31.444898 22.0408163,31.444898 L30.5632653,31.444898 C30.8571429,31.444898 31.077551,31.2244898 31.077551,30.9306122 L31.077551,22.4081633 C31.077551,22.1142857 30.8571429,21.8938776 30.5632653,21.8938776 L22.0408163,21.8938776 C21.7469388,21.8938776 21.5265306,22.1142857 21.5265306,22.4081633 Z M22.555102,22.9959184 L30.0489796,22.9959184 L30.0489796,30.4897959 L22.555102,30.4897959 L22.555102,22.9959184 Z" id="Shape"></path>
                    <path d="M7.64081633,13.5183673 C7.42040816,13.2979592 7.12653061,13.2979592 6.90612245,13.5183673 C6.68571429,13.7387755 6.68571429,14.0326531 6.90612245,14.2530612 L9.77142857,17.1183673 C9.84489796,17.1918367 9.99183673,17.2653061 10.1387755,17.2653061 C10.2857143,17.2653061 10.4326531,17.1918367 10.5061224,17.1183673 L16.8979592,10.7265306 C17.1183673,10.5061224 17.1183673,10.2122449 16.8979592,9.99183673 C16.677551,9.77142857 16.3836735,9.77142857 16.1632653,9.99183673 L10.1387755,16.0163265 L7.64081633,13.5183673 Z" id="Path"></path>
                    <path d="M28.4326531,24.6122449 C28.2122449,24.3918367 27.9183673,24.3918367 27.6979592,24.6122449 L26.3755102,25.9346939 L25.0530612,24.6122449 C24.8326531,24.3918367 24.5387755,24.3918367 24.3183673,24.6122449 C24.0979592,24.8326531 24.0979592,25.1265306 24.3183673,25.3469388 L25.6408163,26.6693878 L24.3183673,27.9918367 C24.0979592,28.2122449 24.0979592,28.5061224 24.3183673,28.7265306 C24.3918367,28.8 24.5387755,28.8734694 24.6857143,28.8734694 C24.8326531,28.8734694 24.9795918,28.8 25.0530612,28.7265306 L26.3755102,27.4040816 L27.6979592,28.7265306 C27.7714286,28.8 27.9183673,28.8734694 28.0653061,28.8734694 C28.2122449,28.8734694 28.3591837,28.8 28.4326531,28.7265306 C28.6530612,28.5061224 28.6530612,28.2122449 28.4326531,27.9918367 L27.1102041,26.6693878 L28.4326531,25.3469388 C28.6530612,25.2 28.6530612,24.8326531 28.4326531,24.6122449 Z" id="Path"></path>
                    <path d="M34.9714286,10.4326531 C34.8244898,10.4326531 34.677551,10.5061224 34.5306122,10.5795918 L28.2122449,16.8979592 L25.4204082,14.1061224 C25.2,13.8857143 24.9061224,13.8857143 24.6857143,14.1061224 L13.2244898,25.4938776 L9.47755102,21.7469388 C9.25714286,21.5265306 8.96326531,21.5265306 8.74285714,21.7469388 L0.440816327,30.0489796 C0.367346939,30.122449 0.293877551,30.2693878 0.293877551,30.4163265 L0.293877551,35.2653061 C0.293877551,35.5591837 0.514285714,35.7795918 0.808163265,35.7795918 L34.9714286,35.7795918 C35.2653061,35.7795918 35.4857143,35.5591837 35.4857143,35.2653061 L35.4857143,10.9469388 C35.5591837,10.6530612 35.2653061,10.3591837 34.9714286,10.4326531 Z M34.4571429,34.7510204 L1.32244898,34.7510204 L1.32244898,30.6367347 L9.03673469,22.922449 L12.7836735,26.6693878 C13.0040816,26.8897959 13.2979592,26.8897959 13.5183673,26.6693878 L24.9795918,15.2081633 L27.7714286,18 C27.9918367,18.2204082 28.2857143,18.2204082 28.5061224,18 L34.3836735,12.122449 L34.3836735,34.7510204 L34.4571429,34.7510204 Z" id="Shape"></path>
                </g>
            </g>
        </g>
    </g>
</svg>