<?xml version="1.0" encoding="UTF-8"?>
<svg width="39px" height="39px" viewBox="0 0 39 39" version="1.1" xmlns="http://www.w3.org/2000/svg" xmlns:xlink="http://www.w3.org/1999/xlink">
    <!-- Generator: Sketch 53.2 (72643) - https://sketchapp.com -->
    <title>Group 17</title>
    <desc>Created with Sketch.</desc>
    <g id="Layouts" stroke="none" stroke-width="1" fill="none" fill-rule="evenodd">
        <g id="Home-v2" transform="translate(-392.000000, -4700.000000)">
            <g id="Group-35" transform="translate(-7.000000, 4055.000000)">
                <g id="Group-6" transform="translate(293.000000, 605.000000)">
                    <g id="Stacked-Group" transform="translate(0.000000, 40.000000)">
                        <g id="Group-17" transform="translate(106.000000, 0.000000)">
                            <path d="M19.4683442,-6.39488462e-14 C16.7775822,-6.39488462e-14 14.2517345,0.50781039 11.8907252,1.5234413 C9.52971584,2.53907221 7.47210623,3.92399766 5.71783558,5.67826831 C3.96356696,7.43253896 2.5720424,9.49014857 1.5432224,11.8511579 C0.514402403,14.2121673 0,16.7380149 0,19.4287769 C0,22.1195388 0.514402403,24.6453865 1.5432224,27.0063958 C2.5720424,29.3674052 3.96356696,31.4250148 5.71783558,33.1792855 C7.47210623,34.9335541 9.52971584,36.3250786 11.8907252,37.3538986 C14.2517345,38.3827186 16.7775822,38.897121 19.4683442,38.897121 C22.1591061,38.897121 24.6849538,38.3827186 27.0459631,37.3538986 C29.4069725,36.3250786 31.4645821,34.9335541 33.2188527,33.1792855 C34.9731234,31.4250148 36.3646434,29.3674052 37.3934634,27.0063958 C38.4222884,24.6453865 38.9366883,22.1195388 38.9366883,19.4287769 C38.9366883,16.7380149 38.4222884,14.2121673 37.3934634,11.8511579 C36.3646434,9.49014857 34.9731234,7.43253896 33.2188527,5.67826831 C31.4645821,3.92399766 29.4069725,2.53907221 27.0459631,1.5234413 C24.6849538,0.50781039 22.1591061,-6.39488462e-14 19.4683442,-6.39488462e-14 Z" id="Path" fill="#0077B5"></path>
                            <polygon id="Path" fill="#E0E7EA" points="14.7199675 27.5010171 10.762987 27.5010171 10.762987 14.8386795 14.7199675 14.8386795"></polygon>
                            <path d="M12.7019049,13.2558873 C12.0951662,13.2558873 11.6071445,13.0646353 11.2378247,12.6821264 C10.8685048,12.2996174 10.6838474,11.8313794 10.6838474,11.277397 C10.6838474,10.7234147 10.8750994,10.2617762 11.2576083,9.89245636 C11.6401173,9.52313143 12.1479277,9.33847403 12.7810496,9.33847403 C13.4141665,9.33847403 13.9087827,9.52313143 14.2649135,9.89245636 C14.6210443,10.2617762 14.8122962,10.7234147 14.8386795,11.277397 C14.8386795,11.8313794 14.6474225,12.2996174 14.2649135,12.6821264 C13.8824045,13.0646353 13.3614051,13.2558873 12.7019049,13.2558873 Z" id="Path" fill="#E0E7EA"></path>
                            <path d="M29.0838094,27.5010171 L25.1663961,27.5010171 L25.1663961,20.4575918 C25.1663961,19.6398125 25.0081169,18.9803225 24.6915584,18.4791016 C24.375,17.9778806 23.8605951,17.7272727 23.1483335,17.7272727 C22.6207344,17.7272727 22.1920687,17.8855519 21.8623161,18.2021104 C21.5325686,18.5186739 21.2885552,18.8484164 21.130276,19.1913581 C21.0775145,19.3232591 21.0445418,19.4749387 21.0313527,19.6464121 C21.0181636,19.8178804 21.0115691,19.9959432 21.0115691,20.1806057 L21.0115691,27.5010171 L17.0545886,27.5010171 L17.0545886,18.8747996 C17.0545886,18.0833984 17.047989,17.3513634 17.0347999,16.6786742 C17.0216108,16.0059849 17.0018271,15.3926618 16.9754439,14.8386795 L20.3784522,14.8386795 L20.5762987,16.5797509 L20.6554383,16.5797509 C20.9192404,16.1576696 21.3676897,15.7092152 22.0008117,15.2343775 C22.6339336,14.7595399 23.4912701,14.522121 24.5728465,14.522121 C25.8654686,14.522121 26.9404403,14.9705755 27.7977869,15.8674944 C28.6551386,16.7644134 29.0838094,18.1493439 29.0838094,20.0223265 L29.0838094,27.5010171 Z" id="Path" fill="#E0E7EA"></path>
                        </g>
                    </g>
                </g>
            </g>
        </g>
    </g>
</svg>