<?xml version="1.0" encoding="UTF-8"?>
<svg width="49px" height="48px" viewBox="0 0 49 48" version="1.1" xmlns="http://www.w3.org/2000/svg" xmlns:xlink="http://www.w3.org/1999/xlink">
    <!-- Generator: Sketch 55.2 (78181) - https://sketchapp.com -->
    <title>Group 24</title>
    <desc>Created with Sketch.</desc>
    <g id="Layouts" stroke="none" stroke-width="1" fill="none" fill-rule="evenodd">
        <g id="Components" transform="translate(-1590.000000, -3171.000000)" fill="#577C70">
            <g id="Group-12" transform="translate(0.000000, 2959.000000)">
                <g id="Group-2" transform="translate(975.000000, 149.000000)">
                    <g id="Group-24" transform="translate(615.047000, 63.000000)">
                        <path d="M9.161,12.342 C9.382,12.342 9.599,12.242 9.743,12.052 C11.966,9.102 15.356,7.408 19.045,7.408 C20.107,7.408 21.158,7.552 22.17,7.833 C22.558,7.941 22.958,7.714 23.066,7.327 C23.173,6.939 22.947,6.539 22.56,6.431 C21.421,6.114 20.239,5.954 19.045,5.954 C14.895,5.954 11.082,7.856 8.582,11.176 C8.34,11.497 8.404,11.952 8.726,12.195 C8.855,12.295 9.009,12.342 9.161,12.342 Z" id="Path"></path>
                        <path d="M30.856,22.786 C30.482,22.643 30.061,22.83 29.917,23.206 C28.205,27.679 23.836,30.684 19.045,30.684 C15.679,30.684 12.48,29.227 10.267,26.687 C10.003,26.384 9.544,26.353 9.241,26.617 C8.938,26.881 8.907,27.34 9.171,27.642 C11.66,30.499 15.259,32.139 19.046,32.139 C24.436,32.139 29.351,28.758 31.277,23.726 C31.419,23.35 31.231,22.93 30.856,22.786 Z" id="Path"></path>
                        <path d="M47.993,7.852 L47.993,1.306 C47.993,1.013 47.816,0.746 47.544,0.635 C47.271,0.521 46.959,0.583 46.751,0.791 L36.365,11.179 C33.301,4.457 26.488,2.84217094e-14 19.045,2.84217094e-14 C8.544,2.84217094e-14 -7.14095449e-13,8.544 -7.14095449e-13,19.046 C-7.14095449e-13,29.548 8.544,38.091 19.045,38.091 C23.05,38.091 26.767,36.846 29.837,34.728 L32.782,37.672 C32.502,37.874 32.218,38.07 31.927,38.26 C31.742,38.379 31.623,38.575 31.6,38.794 C31.577,39.012 31.654,39.229 31.809,39.384 L39.092,46.667 C39.981,47.557 41.148,48 42.316,48 C43.483,48 44.651,47.556 45.539,46.667 L46.659,45.548 C48.436,43.77 48.436,40.878 46.659,39.102 L39.377,31.82 C39.222,31.665 39.005,31.591 38.787,31.611 C38.569,31.634 38.372,31.755 38.253,31.938 C38.064,32.229 37.866,32.513 37.665,32.792 L34.72,29.848 C36.843,26.777 38.091,23.055 38.091,19.046 C38.091,18.724 38.075,18.406 38.059,18.088 L47.781,8.366 C47.916,8.23 47.993,8.045 47.993,7.852 Z M38.97,33.471 L45.63,40.13 C46.84,41.34 46.84,43.309 45.63,44.52 L44.51,45.639 C43.301,46.849 41.331,46.849 40.12,45.639 L33.46,38.979 C35.607,37.464 37.455,35.617 38.97,33.471 Z M36.766,33.952 C35.914,34.98 34.971,35.924 33.941,36.775 L31.014,33.847 C32.051,33.006 32.998,32.06 33.839,31.024 L36.766,33.952 Z M19.044,36.637 C9.345,36.637 1.453,28.745 1.453,19.046 C1.453,9.346 9.345,1.455 19.044,1.455 C26.102,1.455 32.556,5.786 35.27,12.272 L33.536,14.006 L26.834,7.305 C26.55,7.022 26.09,7.022 25.806,7.305 L16.99,16.121 L13.248,12.379 C12.975,12.107 12.493,12.107 12.22,12.379 L6.168,18.432 C6.033,18.567 5.957,18.748 5.955,18.939 L5.955,19.045 C5.955,20.995 6.374,22.872 7.2,24.622 C7.301,24.836 7.499,24.988 7.732,25.029 C7.774,25.035 7.815,25.039 7.857,25.039 C8.048,25.039 8.233,24.965 8.371,24.827 L12.735,20.468 L16.478,24.21 C16.615,24.347 16.8,24.424 16.992,24.424 C17.185,24.424 17.37,24.347 17.506,24.21 L26.322,15.394 L33.023,22.095 C33.296,22.368 33.779,22.368 34.052,22.095 L36.625,19.522 C36.369,29.002 28.584,36.637 19.044,36.637 Z M46.538,7.552 L33.536,20.554 L26.834,13.853 C26.562,13.58 26.079,13.58 25.806,13.853 L16.99,22.669 L13.248,18.926 C12.964,18.642 12.503,18.642 12.22,18.926 L8.108,23.032 C7.666,21.823 7.431,20.554 7.41,19.247 L12.734,13.922 L16.476,17.665 C16.613,17.801 16.798,17.879 16.99,17.879 C17.183,17.879 17.368,17.801 17.504,17.665 L26.32,8.85 L33.021,15.55 C33.305,15.834 33.766,15.834 34.05,15.55 L46.538,3.062 L46.538,7.552 Z" id="Shape"></path>
                    </g>
                </g>
            </g>
        </g>
    </g>
</svg>