<?xml version="1.0" encoding="UTF-8"?>
<svg width="70px" height="70px" viewBox="0 0 70 70" version="1.1" xmlns="http://www.w3.org/2000/svg" xmlns:xlink="http://www.w3.org/1999/xlink">
    <!-- Generator: Sketch 54 (76480) - https://sketchapp.com -->
    <title>machine-leanring</title>
    <desc>Created with Sketch.</desc>
    <g id="Layouts" stroke="none" stroke-width="1" fill="none" fill-rule="evenodd">
        <g id="Home-v2-head-CTA" transform="translate(-338.000000, -2023.000000)">
            <g id="machine-leanring" transform="translate(338.000000, 2023.000000)">
                <circle id="Oval" fill="#402039" cx="35" cy="35" r="35"></circle>
                <g id="online-support-white" transform="translate(18.000000, 18.000000)" fill="#FFFFFF">
                    <path d="M34.5,30 L31.7857143,24.5714286 L31.7857143,3.21428571 C31.7857143,1.78571429 30.6428571,0.642857143 29.2142857,0.642857143 L17.5,0.642857143 C17.2142857,0.642857143 17,0.857142857 17,1.14285714 C17,1.42857143 17.2142857,1.64285714 17.5,1.64285714 L29.2142857,1.64285714 C30.0714286,1.64285714 30.7857143,2.35714286 30.7857143,3.21428571 L30.7857143,24.1428571 L4.14285714,24.1428571 L4.14285714,20.5 C4.14285714,20.2142857 3.92857143,20 3.64285714,20 C3.35714286,20 3.14285714,20.2142857 3.14285714,20.5 L3.14285714,24.5 L0.428571429,29.9285714 C0.357142857,30 0.357142857,30.0714286 0.357142857,30.1428571 L0.357142857,32.2142857 C0.357142857,33.6428571 1.5,34.7857143 2.92857143,34.7857143 L32,34.7857143 C33.4285714,34.7857143 34.5714286,33.6428571 34.5714286,32.2142857 L34.5714286,30.1428571 C34.5714286,30.1428571 34.5714286,30.0714286 34.5,30 Z M3.85714286,25.2142857 L30.9285714,25.2142857 L33.2142857,29.7142857 L1.64285714,29.7142857 L3.85714286,25.2142857 Z M33.5,32.3571429 C33.5,33.2142857 32.7857143,33.9285714 31.9285714,33.9285714 L2.85714286,33.9285714 C2,33.9285714 1.28571429,33.2142857 1.28571429,32.3571429 L1.28571429,30.7857143 L33.5,30.7857143 L33.5,32.3571429 Z" id="Shape"></path>
                    <path d="M15.7142857,32.8571429 L19.1428571,32.8571429 C19.4285714,32.8571429 19.6428571,32.6428571 19.6428571,32.3571429 C19.6428571,32.0714286 19.4285714,31.8571429 19.1428571,31.8571429 L15.7142857,31.8571429 C15.4285714,31.8571429 15.2142857,32.0714286 15.2142857,32.3571429 C15.2142857,32.6428571 15.4285714,32.8571429 15.7142857,32.8571429 Z" id="Path"></path>
                    <path d="M23,3.92857143 C23.0714286,3.85714286 23.1428571,3.71428571 23.1428571,3.57142857 C23.1428571,3.42857143 23.0714286,3.28571429 23,3.21428571 C22.7857143,3 22.4285714,3 22.2857143,3.21428571 C22.2142857,3.28571429 22.1428571,3.42857143 22.1428571,3.57142857 C22.1428571,3.71428571 22.2142857,3.85714286 22.2857143,3.92857143 C22.3571429,4 22.5,4.07142857 22.6428571,4.07142857 C22.7142857,4.07142857 22.8571429,4.07142857 23,3.92857143 Z" id="Path"></path>
                    <path d="M25.9285714,3.57142857 C25.9285714,3.28571429 25.7142857,3.07142857 25.4285714,3.07142857 C25.1428571,3.07142857 24.9285714,3.28571429 24.9285714,3.57142857 C24.9285714,3.85714286 25.1428571,4.07142857 25.4285714,4.07142857 C25.6428571,4.07142857 25.9285714,3.85714286 25.9285714,3.57142857 Z" id="Path"></path>
                    <path d="M28.5,3.92857143 C28.5714286,3.85714286 28.6428571,3.71428571 28.6428571,3.57142857 C28.6428571,3.42857143 28.5714286,3.28571429 28.5,3.21428571 C28.2857143,3 28,3 27.7857143,3.21428571 C27.7142857,3.28571429 27.6428571,3.42857143 27.6428571,3.57142857 C27.6428571,3.71428571 27.7142857,3.85714286 27.7857143,3.92857143 C27.8571429,4 28,4.07142857 28.1428571,4.07142857 C28.2857143,4.07142857 28.4285714,4.07142857 28.5,3.92857143 Z" id="Path"></path>
                    <path d="M10.5,21.1428571 C12.4285714,21.1428571 14.2142857,20.6428571 15.8571429,19.6428571 L19.9285714,22.3571429 C20,22.4285714 20.1428571,22.4285714 20.2142857,22.4285714 C20.2857143,22.4285714 20.3571429,22.4285714 20.4285714,22.3571429 C20.5714286,22.2857143 20.7142857,22.0714286 20.7142857,21.9285714 L20.7142857,10.8571429 C20.7142857,5.21428571 16.1428571,0.571428571 10.4285714,0.571428571 C4.71428571,0.571428571 0.142857143,5.14285714 0.142857143,10.8571429 C0.142857143,16.5714286 4.85714286,21.1428571 10.5,21.1428571 Z M10.5,1.71428571 C15.5714286,1.71428571 19.7142857,5.85714286 19.7142857,10.9285714 L19.7142857,21 L16.1428571,18.6428571 C16.0714286,18.5714286 15.9285714,18.5714286 15.8571429,18.5714286 C15.7857143,18.5714286 15.6428571,18.5714286 15.5714286,18.6428571 C14.0714286,19.6428571 12.2857143,20.1428571 10.5,20.1428571 C5.42857143,20.1428571 1.28571429,16 1.28571429,10.9285714 C1.28571429,5.85714286 5.42857143,1.71428571 10.5,1.71428571 Z" id="Shape"></path>
                    <path d="M5.92857143,12.8571429 L4.78571429,14.4285714 C4.64285714,14.6428571 4.64285714,14.8571429 4.78571429,15.0714286 C5.21428571,15.7142857 5.78571429,16.2142857 6.42857143,16.7142857 C6.64285714,16.8571429 6.85714286,16.8571429 7.07142857,16.7142857 L8.64285714,15.5714286 C8.64285714,15.5714286 8.71428571,15.5714286 8.71428571,15.5714286 L9,17.5 C9,17.7142857 9.21428571,17.9285714 9.42857143,17.9285714 C9.78571429,18 10.2142857,18 10.5714286,18 C10.9285714,18 11.3571429,18 11.7142857,17.9285714 C11.9285714,17.8571429 12.1428571,17.7142857 12.1428571,17.5 L12.4285714,15.5714286 C12.4285714,15.5714286 12.5,15.5714286 12.5,15.5714286 L14.0714286,16.7142857 C14.2857143,16.8571429 14.5,16.8571429 14.7142857,16.7142857 C15.3571429,16.2857143 15.8571429,15.7142857 16.3571429,15.0714286 C16.5,14.8571429 16.5,14.6428571 16.3571429,14.4285714 L15.2142857,12.8571429 C15.2142857,12.8571429 15.2142857,12.8571429 15.2142857,12.7857143 L17.1428571,12.5 C17.3571429,12.5 17.5714286,12.2857143 17.5714286,12.0714286 C17.6428571,11.7142857 17.6428571,11.2857143 17.6428571,10.9285714 C17.6428571,10.5714286 17.6428571,10.1428571 17.5714286,9.78571429 C17.5,9.57142857 17.3571429,9.35714286 17.1428571,9.35714286 L15.2142857,9.07142857 C15.2142857,9.07142857 15.2142857,9.07142857 15.2142857,9 L16.3571429,7.42857143 C16.5,7.21428571 16.5,7 16.3571429,6.78571429 C15.9285714,6.14285714 15.3571429,5.64285714 14.7142857,5.14285714 C14.5,5 14.2857143,5 14.0714286,5.14285714 L12.5,6.28571429 C12.5,6.28571429 12.5,6.28571429 12.4285714,6.28571429 L12.1428571,4.35714286 C12.1428571,4.14285714 11.9285714,3.92857143 11.7142857,3.92857143 C10.9285714,3.78571429 10.1428571,3.78571429 9.42857143,3.92857143 C9.21428571,4 9,4.14285714 9,4.35714286 L8.71428571,6.28571429 C8.71428571,6.28571429 8.71428571,6.28571429 8.64285714,6.28571429 L7.07142857,5.14285714 C6.85714286,5 6.64285714,5 6.42857143,5.14285714 C5.78571429,5.57142857 5.21428571,6.14285714 4.78571429,6.78571429 C4.64285714,7 4.64285714,7.21428571 4.78571429,7.42857143 L5.92857143,9 C5.92857143,9 5.92857143,9 5.92857143,9.07142857 L4,9.35714286 C3.78571429,9.35714286 3.57142857,9.57142857 3.57142857,9.78571429 C3.5,10.1428571 3.5,10.5714286 3.5,10.9285714 C3.5,11.2857143 3.5,11.7142857 3.57142857,12.0714286 C3.64285714,12.2857143 3.78571429,12.4285714 4,12.5 L5.92857143,12.8571429 C5.92857143,12.7857143 5.92857143,12.8571429 5.92857143,12.8571429 Z M4.5,10.9285714 C4.5,10.7142857 4.5,10.5 4.5,10.2857143 L6.35714286,10 C6.57142857,10 6.71428571,9.85714286 6.78571429,9.64285714 C6.85714286,9.5 6.92857143,9.28571429 7,9.14285714 C7.07142857,9 7.07142857,8.78571429 6.92857143,8.57142857 L5.85714286,7.07142857 C6.14285714,6.78571429 6.42857143,6.42857143 6.71428571,6.21428571 L8.21428571,7.28571429 C8.35714286,7.42857143 8.57142857,7.42857143 8.71428571,7.35714286 C8.85714286,7.28571429 9.07142857,7.21428571 9.21428571,7.14285714 C9.42857143,7.07142857 9.5,6.92857143 9.57142857,6.71428571 L9.85714286,4.85714286 C10.2857143,4.78571429 10.6428571,4.78571429 11.0714286,4.85714286 L11.3571429,6.71428571 C11.3571429,6.92857143 11.5,7.07142857 11.7142857,7.14285714 C11.8571429,7.21428571 12.0714286,7.28571429 12.2142857,7.35714286 C12.3571429,7.42857143 12.5714286,7.42857143 12.7857143,7.28571429 L14.2857143,6.21428571 C14.5714286,6.5 14.9285714,6.78571429 15.1428571,7.07142857 L14.0714286,8.57142857 C13.9285714,8.71428571 13.9285714,8.92857143 14,9.14285714 C14.0714286,9.28571429 14.1428571,9.5 14.2142857,9.64285714 C14.2857143,9.85714286 14.4285714,9.92857143 14.6428571,10 L16.5,10.2857143 C16.5,10.5 16.5,10.7142857 16.5,10.9285714 C16.5,11.1428571 16.5,11.3571429 16.5,11.5714286 L14.6428571,11.8571429 C14.4285714,11.8571429 14.2857143,12 14.2142857,12.2142857 C14.1428571,12.3571429 14.0714286,12.5714286 14,12.7142857 C13.9285714,12.8571429 13.9285714,13.0714286 14.0714286,13.2857143 L15.1428571,14.7857143 C14.8571429,15.0714286 14.5714286,15.4285714 14.2857143,15.6428571 L12.7857143,14.5714286 C12.6428571,14.4285714 12.4285714,14.4285714 12.2142857,14.5 C12.0714286,14.5714286 11.8571429,14.6428571 11.7142857,14.7142857 C11.5,14.7857143 11.4285714,14.9285714 11.3571429,15.1428571 L11.0714286,17 C10.6428571,17.0714286 10.2142857,17.0714286 9.85714286,17 L9.57142857,15.1428571 C9.57142857,14.9285714 9.42857143,14.7857143 9.21428571,14.7142857 C9,14.6428571 8.85714286,14.5714286 8.71428571,14.5 C8.57142857,14.4285714 8.35714286,14.4285714 8.14285714,14.5714286 L6.64285714,15.6428571 C6.35714286,15.3571429 6,15.0714286 5.78571429,14.7857143 L6.85714286,13.2857143 C7,13.1428571 7,12.9285714 6.92857143,12.7142857 C6.85714286,12.5714286 6.78571429,12.3571429 6.71428571,12.2142857 C6.64285714,12 6.5,11.9285714 6.28571429,11.8571429 L4.42857143,11.5714286 C4.5,11.2857143 4.5,11.0714286 4.5,10.9285714 Z" id="Shape"></path>
                    <path d="M10.5,13.1428571 C11.7142857,13.1428571 12.7857143,12.1428571 12.7857143,10.8571429 C12.7857143,9.64285714 11.7857143,8.57142857 10.5,8.57142857 C9.21428571,8.57142857 8.21428571,9.57142857 8.21428571,10.8571429 C8.28571429,12.1428571 9.28571429,13.1428571 10.5,13.1428571 Z M10.5,9.71428571 C11.1428571,9.71428571 11.7142857,10.2857143 11.7142857,10.9285714 C11.7142857,11.5714286 11.1428571,12.1428571 10.5,12.1428571 C9.85714286,12.1428571 9.28571429,11.5714286 9.28571429,10.9285714 C9.28571429,10.2142857 9.85714286,9.71428571 10.5,9.71428571 Z" id="Shape"></path>
                </g>
            </g>
        </g>
    </g>
</svg>