<?xml version="1.0" encoding="UTF-8"?>
<svg width="70px" height="70px" viewBox="0 0 70 70" version="1.1" xmlns="http://www.w3.org/2000/svg" xmlns:xlink="http://www.w3.org/1999/xlink">
    <!-- Generator: Sketch 54 (76480) - https://sketchapp.com -->
    <title>seo-agency</title>
    <desc>Created with Sketch.</desc>
    <g id="Layouts" stroke="none" stroke-width="1" fill="none" fill-rule="evenodd">
        <g id="Home-v2-head-CTA" transform="translate(-125.000000, -1988.000000)">
            <g id="seo-agency" transform="translate(125.000000, 1988.000000)">
                <circle id="Oval" fill="#402039" cx="35" cy="35" r="35"></circle>
                <g id="marjet-research-white" transform="translate(17.000000, 17.000000)" fill="#FFFFFF">
                    <path d="M17.7142857,16.5714286 C13.7857143,16.5714286 10.6428571,19.7857143 10.6428571,23.6428571 C10.6428571,27.5 13.8571429,30.7142857 17.7142857,30.7142857 C21.6428571,30.7142857 24.7857143,27.5 24.7857143,23.6428571 C24.7857143,19.7857143 21.6428571,16.5714286 17.7142857,16.5714286 Z M18.2857143,17.6428571 C19.9285714,17.7857143 21.3571429,18.5714286 22.3571429,19.7142857 L18.2857143,22.6428571 L18.2857143,17.6428571 Z M11.7142857,23.6428571 C11.7142857,20.5 14.1428571,17.8571429 17.2857143,17.6428571 L17.2857143,23.4285714 L12.7857143,27.0714286 C12.0714286,26.0714286 11.7142857,24.9285714 11.7142857,23.6428571 Z M17.7142857,29.7142857 C16,29.7142857 14.5,29 13.3571429,27.8571429 L17.6428571,24.3571429 L21.5,28.3571429 C20.5714286,29.2142857 19.2142857,29.7142857 17.7142857,29.7142857 Z M22.3571429,27.5714286 L18.5714286,23.7142857 L23,20.5714286 C23.5714286,21.5 23.8571429,22.5714286 23.8571429,23.6428571 C23.7857143,25.1428571 23.2142857,26.5714286 22.3571429,27.5714286 Z" id="Shape"></path>
                    <path d="M28.6428571,23.6428571 C28.6428571,19.7857143 26.5714286,16.1428571 23.2142857,14.2142857 C22.2857143,13.7142857 21.7142857,12.7857143 21.7142857,11.7857143 L21.7142857,6.21428571 L22.5714286,6.21428571 C22.8571429,6.21428571 23.0714286,6 23.0714286,5.71428571 C23.0714286,5.42857143 22.8571429,5.21428571 22.5714286,5.21428571 L12.8571429,5.21428571 C12.5714286,5.21428571 12.3571429,5.42857143 12.3571429,5.71428571 C12.3571429,6 12.5714286,6.21428571 12.8571429,6.21428571 L13.7142857,6.21428571 L13.7142857,11.7142857 C13.7142857,12.7857143 13.1428571,13.7142857 12.2142857,14.2857143 C8.85714286,16.2857143 6.78571429,19.9285714 6.78571429,23.7857143 C6.85714286,29.4285714 11.5,34.2857143 17.1428571,34.5714286 C17.2857143,34.5714286 17.5,34.5714286 17.6428571,34.5714286 C20.4285714,34.5714286 23.1428571,33.5 25.1428571,31.5714286 C27.4285714,29.4285714 28.6428571,26.6428571 28.6428571,23.6428571 Z M17.2857143,33.5 C12.1428571,33.2857143 7.92857143,28.8571429 7.85714286,23.7142857 C7.78571429,20.2142857 9.71428571,16.8571429 12.7142857,15.0714286 C14,14.3571429 14.7857143,13 14.7857143,11.5714286 L14.7857143,6.07142857 L20.6428571,6.07142857 L20.6428571,11.6428571 C20.6428571,13 21.3571429,14.2857143 22.6428571,15 C25.7142857,16.7857143 27.5714286,20 27.5714286,23.5714286 C27.5714286,26.2857143 26.5,28.8571429 24.5,30.7142857 C22.5714286,32.6428571 20,33.6428571 17.2857143,33.5 Z" id="Shape"></path>
                    <path d="M34.2142857,0.285714286 L1,0.285714286 C0.714285714,0.285714286 0.5,0.5 0.5,0.785714286 L0.5,34 C0.5,34.2857143 0.714285714,34.5 1,34.5 L10,34.5 C10.2857143,34.5 10.5,34.2857143 10.5,34 C10.5,33.7142857 10.2857143,33.5 10,33.5 L1.5,33.5 L1.5,6.14285714 L10.1428571,6.14285714 C10.4285714,6.14285714 10.6428571,5.92857143 10.6428571,5.64285714 C10.6428571,5.35714286 10.4285714,5.14285714 10.1428571,5.14285714 L1.5,5.14285714 L1.5,1.35714286 L33.7142857,1.35714286 L33.7142857,5.14285714 L25.4285714,5.14285714 C25.1428571,5.14285714 24.9285714,5.35714286 24.9285714,5.64285714 C24.9285714,5.92857143 25.1428571,6.14285714 25.4285714,6.14285714 L33.7142857,6.14285714 L33.7142857,33.5 L25.2142857,33.5 C24.9285714,33.5 24.7142857,33.7142857 24.7142857,34 C24.7142857,34.2857143 24.9285714,34.5 25.2142857,34.5 L34.2142857,34.5 C34.5,34.5 34.7142857,34.2857143 34.7142857,34 L34.7142857,0.785714286 C34.7142857,0.5 34.5,0.285714286 34.2142857,0.285714286 Z" id="Path"></path>
                    <path d="M31.0714286,3.57142857 C31.1428571,3.5 31.2142857,3.35714286 31.2142857,3.21428571 C31.2142857,3.07142857 31.1428571,2.92857143 31.0714286,2.85714286 C30.8571429,2.64285714 30.5,2.64285714 30.3571429,2.85714286 C30.2857143,2.92857143 30.2142857,3.07142857 30.2142857,3.21428571 C30.2142857,3.35714286 30.2857143,3.5 30.3571429,3.57142857 C30.4285714,3.64285714 30.5714286,3.71428571 30.7142857,3.71428571 C30.8571429,3.71428571 31,3.71428571 31.0714286,3.57142857 Z" id="Path"></path>
                    <path d="M28.5714286,3.21428571 C28.5714286,2.92857143 28.3571429,2.71428571 28.0714286,2.71428571 C27.7857143,2.71428571 27.5714286,2.92857143 27.5714286,3.21428571 C27.5714286,3.5 27.7857143,3.71428571 28.0714286,3.71428571 C28.3571429,3.71428571 28.5714286,3.5 28.5714286,3.21428571 Z" id="Path"></path>
                    <path d="M25.7142857,3.57142857 C25.7857143,3.5 25.8571429,3.35714286 25.8571429,3.21428571 C25.8571429,3.07142857 25.7857143,2.92857143 25.7142857,2.85714286 C25.5,2.64285714 25.1428571,2.64285714 25,2.85714286 C24.9285714,2.92857143 24.8571429,3.07142857 24.8571429,3.21428571 C24.8571429,3.35714286 24.9285714,3.5 25,3.57142857 C25.0714286,3.64285714 25.2142857,3.71428571 25.3571429,3.71428571 C25.5,3.71428571 25.6428571,3.64285714 25.7142857,3.57142857 Z" id="Path"></path>
                </g>
            </g>
        </g>
    </g>
</svg>