<?xml version="1.0" encoding="UTF-8"?>
<svg width="72px" height="72px" viewBox="0 0 72 72" version="1.1" xmlns="http://www.w3.org/2000/svg" xmlns:xlink="http://www.w3.org/1999/xlink">
    <!-- Generator: Sketch 53.2 (72643) - https://sketchapp.com -->
    <title>icon</title>
    <desc>Created with Sketch.</desc>
    <g id="Layouts" stroke="none" stroke-width="1" fill="none" fill-rule="evenodd">
        <g id="Home-v2" transform="translate(-744.000000, -2666.000000)">
            <g id="Group-4" transform="translate(5.000000, 1911.000000)">
                <g id="Group-32" transform="translate(276.000000, 354.000000)">
                    <g id="Group-25-Copy" transform="translate(463.000000, 392.000000)">
                        <g id="Stacked-Group">
                            <g id="icon" transform="translate(0.000000, 9.000000)">
                                <circle id="Oval" fill-opacity="0.2" fill="#000000" style="mix-blend-mode: multiply;" cx="36" cy="36" r="36"></circle>
                                <g id="Group-13" transform="translate(13.000000, 13.000000)" fill="#577C70">
                                    <path d="M25.5190504,13.6808515 C24.8758752,13.5123217 24.4274388,12.9103591 24.3971234,12.2316153 C24.3612255,11.41776 25.1112511,10.7395864 25.8931404,10.7355983 C26.8929672,10.7276447 27.8908669,10.7216738 28.8906804,10.7117631 C28.8941023,10.7115989 28.8975266,10.7114453 28.9009532,10.7113021 C29.2249013,10.6969067 29.5296097,10.8088951 29.7784153,10.9986408 C29.8459087,11.0436045 29.9100603,11.0936054 29.9699745,11.1483574 C30.2835461,11.4334155 30.4147306,11.8286508 30.3977299,12.2237169 C30.3987841,12.2571643 30.3985133,12.2903756 30.3969702,12.323313 L30.3969702,15.3290043 C30.3969702,16.1667574 29.7148085,16.7891183 28.9009532,16.8250213 C28.300015,16.8517254 27.7652841,16.4435189 27.5308027,15.9108114 C26.6716557,16.841326 25.8125087,17.7713803 24.9533617,18.7041702 C24.6388416,19.042958 24.2003913,19.1686777 23.7744655,19.1238741 C23.6819475,19.1174898 23.588802,19.104776 23.4954383,19.0870366 C23.292,19.0471404 23.0805651,19.0072443 22.8771064,18.9673532 C21.6931382,18.7411108 20.5050756,18.5148893 19.3185678,18.2875359 C19.1307385,18.4179154 18.9439598,18.5472548 18.7578383,18.6759319 C17.353583,19.6473702 15.9513191,20.624783 14.5450723,21.5981617 C13.8627367,22.0700092 13.181553,22.5418264 12.4988119,23.0145475 L12.4988119,24.7721413 L12.4988119,29.4037838 L12.4988119,31.3346094 C12.0001226,30.83592 11.5014638,30.3372613 11.0027949,29.8385923 L11.2860409,29.8385923 L14.2258723,29.8385923 L14.2258723,26.9422979 C14.2258723,26.1045447 14.908034,25.486177 15.7218894,25.4462809 C16.5297191,25.410383 17.2179064,26.1604085 17.2179064,26.9422979 L17.2179064,27.500834 L17.2179064,29.8385923 L19.0631489,29.8385923 L19.0631489,22.9189787 C19.0631489,22.0812255 19.7473532,21.4568732 20.559166,21.4229617 C21.3669957,21.3870638 22.055183,22.1370894 22.055183,22.9189787 L22.055183,23.9721702 L22.055183,29.8385923 L23.7926962,29.8385923 L23.9004255,29.8385923 L23.9004255,23.9361702 C23.9004255,23.098417 24.5886128,22.4800494 25.3964426,22.4401532 C26.2042723,22.4042553 26.8924596,23.1542809 26.8924596,23.9361702 L26.8924596,24.8497532 L26.8924596,29.8385923 L27.9017515,29.8385923 L28.7371915,29.8385923 L28.7371915,23.6570553 L28.7371915,19.7514894 C28.7371915,18.9137362 29.4253787,18.2953685 30.2332085,18.2554723 C31.0410383,18.2195745 31.7292255,18.9696 31.7292255,19.7514894 L31.7292255,21.1916426 L31.7292255,27.4188766 L31.7292255,29.8385923 L32.2202196,29.8385923 C33.0579728,29.8385923 33.6803336,30.520754 33.7162366,31.3346094 C33.7521345,32.1424391 33.0021089,32.8306264 32.2202196,32.8306264 L31.8910979,32.8306264 L27.7461447,32.8306264 L23.1982979,32.8306264 L19.2388596,32.8306264 L15.359183,32.8306264 L10.9908255,32.8306264 C10.1769702,32.8306264 9.49480851,32.1424391 9.49480851,31.3346094 L9.49480851,31.2987064 C9.47885106,30.516766 9.49480851,29.7268596 9.49480851,28.9449702 L9.49480851,24.1018723 L9.49480851,18.5006809 L9.49480851,13.8690383 L9.49480851,11.9382128 L9.49482894,11.9382128 C9.49482894,11.0984681 10.1769906,10.4761021 11.0027949,10.4421957 C11.8106247,10.4062979 12.4988119,11.1563234 12.4988119,11.9382128 L12.4988119,11.9741157 C12.5147694,12.7560562 12.4988119,13.5459626 12.4988119,14.3278519 L12.4988119,19.1709498 L12.4988119,19.3865795 C13.5227645,18.676081 14.5465173,17.9638437 15.5723898,17.2537532 C16.382621,16.6934636 17.191228,16.1332167 18.0027469,15.5714484 C18.0725408,15.5106876 18.145748,15.4576284 18.2195234,15.4147915 C18.2389334,15.4034685 18.2584484,15.392711 18.2780634,15.3825029 C18.597386,15.1829923 18.9689205,15.1592934 19.314551,15.2548405 C19.3338365,15.2580677 19.3531348,15.2615213 19.3724426,15.2651898 C19.5758809,15.305086 19.7873157,15.344977 19.9907745,15.3848732 C21.1101255,15.598768 22.2331362,15.8126441 23.3550328,16.0274758 C23.389309,15.9901431 23.4234376,15.9528566 23.4573447,15.9156255 C24.1445799,15.169507 24.8318152,14.4251275 25.5190504,13.6808515 Z M37.8956182,35.7855586 C37.9898546,35.8797951 38.084038,35.9739784 38.1781277,36.0680681 C40.076834,37.9632 41.9757957,39.8581277 43.8707234,41.7570894 C45.0576,42.9379404 46.2444255,44.124766 47.4312511,45.31159 C48.0256851,45.8999985 47.9797787,46.8275219 47.4312511,47.4259389 C46.8886979,48.0203729 45.8714043,47.980441 45.3169021,47.4259389 L44.0163574,46.1253942 C42.1156085,44.2302638 40.2206809,42.3313021 38.3217191,40.4363745 C37.4730723,39.592036 36.6244516,38.7446431 35.7758383,37.8963797 C33.8328274,39.5816494 31.5952395,40.9196194 29.1605872,41.8403796 C25.1372681,43.362286 20.6391064,43.5797157 16.4702043,42.5584391 C12.1956511,41.5116306 8.25822128,39.0938604 5.38986383,35.756737 C3.86790638,33.9856902 2.6670914,32.0228987 1.76351694,29.8726519 C0.921780766,27.8718689 0.433079489,25.7675285 0.223636085,23.6132477 C-0.195240511,19.3208221 0.768180766,14.9065072 2.86659779,11.1465243 C5.02659574,7.28257532 8.44358298,4.07117106 12.4568936,2.20014128 C14.5311574,1.23273702 16.6894213,0.614374468 18.9593617,0.315171064 C21.0977106,0.029933617 23.241983,0.10373617 25.3663404,0.458788085 C29.7047234,1.18083064 33.7699149,3.33909447 36.875617,6.43683064 C37.4700511,7.02523915 37.4241447,7.95276255 36.875617,8.55117957 C36.3330638,9.1495966 35.3157702,9.1056817 34.7612681,8.55117957 C34.2964851,8.0863966 33.8097855,7.64359149 33.3051319,7.21672851 C33.1734791,7.11101106 33.0498128,6.99731234 32.9101838,6.90156766 C32.9760051,6.94944 33.0358468,6.99531574 33.0996766,7.04518468 C33.061777,7.01526638 33.025874,6.98534298 32.9859779,6.95542468 C32.9241447,6.90954383 32.8702877,6.86964766 32.810446,6.82576851 C32.5511438,6.63429957 32.2918111,6.45078638 32.0225311,6.27126638 C30.979297,5.5731217 29.8722332,4.97472 28.7153311,4.48602383 C28.8350094,4.53589277 28.9546877,4.5857566 29.0743711,4.63562553 C27.4386434,3.9474383 25.7192221,3.47869787 23.963903,3.23933617 C24.0995387,3.2592817 24.2271983,3.27523915 24.3628391,3.29518979 C22.5676902,3.05582809 20.7525243,3.05582809 18.9613072,3.29518979 C19.0969481,3.27523915 19.2246077,3.2592817 19.3602434,3.23933617 C17.6048221,3.4787234 15.8854009,3.9474383 14.2497753,4.63562553 C14.3694536,4.5857566 14.4891319,4.53588766 14.6088153,4.48602383 C13.5915217,4.91690043 12.6141089,5.42953021 11.6865855,6.01793872 C11.2677089,6.28924085 10.8527898,6.57247149 10.4538536,6.87167489 C10.3920204,6.91755574 10.3381634,6.95744681 10.2783217,7.00133106 C10.0549174,7.1708783 10.573537,6.76595745 10.3541209,6.94148936 C10.2603677,7.01529191 10.1666196,7.08909447 10.0708749,7.16489362 C9.88539064,7.3184834 9.69589277,7.47406979 9.51637277,7.63364426 C8.76435574,8.29788255 8.0602366,9.01594213 7.41198128,9.7779166 C7.23844085,9.98135489 7.0728817,10.1868051 6.90931915,10.3962485 C7.23445277,9.99331915 6.9552,10.3364068 6.87940085,10.4361396 C6.80958638,10.5298928 6.73977191,10.6296255 6.66995745,10.7253702 C6.37674894,11.1303064 6.10146894,11.5491728 5.8421617,11.9720426 C5.32953191,12.8078043 4.87874043,13.6854894 4.4957617,14.5890638 C4.54563064,14.4693855 4.59549447,14.3497021 4.6453634,14.2300238 C3.95717617,15.8657515 3.48843523,17.5851728 3.24907353,19.3404919 C3.26902315,19.2048511 3.2849806,19.0771915 3.30492715,18.9415557 C3.06556545,20.7367047 3.06556545,22.5518706 3.30492715,24.3430877 C3.28497804,24.2074468 3.2690206,24.0797872 3.24907353,23.9441515 C3.48846077,25.6995728 3.95717617,27.418994 4.6453634,29.0546196 C4.59549447,28.9349362 4.54562553,28.8152579 4.4957617,28.6955745 C4.9266383,29.7128681 5.43926809,30.6902809 6.0276766,31.6178043 C6.29897872,32.0366809 6.58220936,32.4516 6.88141277,32.8505362 C6.92729362,32.9123694 6.96718468,32.9662264 7.01106894,33.0260681 C7.18061617,33.2494723 6.77569532,32.7308528 6.95122723,32.9502689 C7.02502979,33.0440221 7.09883234,33.1377702 7.17463149,33.2335149 C7.32822128,33.4189991 7.48380766,33.608497 7.64338213,33.788017 C8.30762043,34.540034 9.02568,35.2441532 9.78765447,35.8924085 C9.99109277,36.0659489 10.196543,36.2315081 10.4059864,36.3950706 C10.003057,36.0699421 10.3461447,36.3491949 10.4458774,36.424994 C10.5396306,36.4948085 10.6393634,36.564623 10.7351081,36.6344374 C11.1400443,36.927646 11.5589106,37.202926 11.9817804,37.4622332 C12.8175421,37.974863 13.6952272,38.4256545 14.5988017,38.8086332 C14.4791234,38.7587643 14.3594451,38.7088953 14.2397617,38.6590315 C15.8754894,39.3472187 17.5949106,39.8159591 19.3502298,40.0553209 C19.2145889,40.0353702 19.0869294,40.0194128 18.9512936,39.9994672 C20.7464426,40.2388289 22.5616085,40.2388289 24.3528255,39.9994672 C24.2171847,40.0194128 24.0895251,40.0353702 23.9538894,40.0553209 C25.7093106,39.8159336 27.4287319,39.3472187 29.0643574,38.6590315 C28.9446791,38.7089004 28.8250009,38.7587643 28.7053174,38.8086332 C29.7226111,38.3777566 30.7000238,37.8651268 31.6275472,37.2767183 C32.0464238,37.0054162 32.461343,36.7221855 32.8602791,36.4229821 C32.9221123,36.3771013 32.9759694,36.3372051 33.0358111,36.293326 C33.2592153,36.1237787 32.7405957,36.5286996 32.9600119,36.3531677 C33.0537651,36.2793651 33.1475132,36.2055626 33.2432579,36.1297634 C33.4287421,35.9761736 33.61824,35.8205872 33.79776,35.6610128 C34.549777,34.9967745 35.2538962,34.2787149 35.9021515,33.5167404 C36.0756919,33.3133021 36.2412511,33.1078519 36.4048136,32.8984085 C36.0796851,33.3013328 36.3589379,32.9582451 36.434737,32.8585123 C36.5045515,32.7647591 36.574366,32.6650264 36.6441804,32.5692817 C36.9373889,32.1643455 37.2126689,31.7454791 37.4719762,31.3226094 C37.984606,30.4868477 38.4353974,29.6091626 38.8183762,28.7055881 C38.7685072,28.8252664 38.7186383,28.9449447 38.6687745,29.0646281 C39.3569617,27.4289004 39.8257021,25.7094791 40.0650638,23.95416 C40.0451132,24.0898009 40.0291557,24.2174604 40.0092102,24.3530962 C40.2485719,22.5579472 40.2485719,20.7427813 40.0092102,18.9515643 C40.0291557,19.0872051 40.0451132,19.2148647 40.0650638,19.3505004 C39.8256766,17.5950791 39.3569617,15.8756579 38.6687745,14.2400323 C38.7186434,14.3597106 38.7685072,14.4793889 38.8183762,14.5990723 C38.3256613,13.4461532 37.7312783,12.3331149 37.0331336,11.2918723 C36.8576221,11.0265447 36.6681243,10.7632647 36.4786315,10.5039574 C36.4327506,10.4421243 36.3928545,10.3842791 36.3489753,10.3284255 C36.319057,10.290526 36.2891336,10.254623 36.2592153,10.2147268 C36.4128051,10.4141974 36.4527013,10.4640613 36.3828868,10.3743013 C36.283154,10.2566145 36.1874094,10.1309515 36.0876766,10.0112681 C35.6687489,9.50461277 35.225954,9.01989957 34.7611915,8.55114894 L34.7617634,8.55084766 C34.1733191,7.96243915 34.2132,7.03486468 34.7717362,6.44446468 C35.3142894,5.85003064 36.331583,5.88996255 36.8860851,6.44446468 C37.693966,7.25627745 38.4319915,8.13993702 39.1101702,9.06148596 C41.6833277,12.558337 43.087583,16.8868136 43.1833277,21.2192732 C43.2770809,25.5116987 42.0463404,29.8600902 39.6766723,33.4465072 C39.1340392,34.2694698 38.5385963,35.0504141 37.8956182,35.7855586 Z" id="Combined-Shape"></path>
                                </g>
                            </g>
                        </g>
                    </g>
                </g>
            </g>
        </g>
    </g>
</svg>