<?xml version="1.0" encoding="UTF-8"?>
<svg width="70px" height="70px" viewBox="0 0 70 70" version="1.1" xmlns="http://www.w3.org/2000/svg" xmlns:xlink="http://www.w3.org/1999/xlink">
    <!-- Generator: Sketch 54 (76480) - https://sketchapp.com -->
    <title>speaking-media</title>
    <desc>Created with Sketch.</desc>
    <g id="Layouts" stroke="none" stroke-width="1" fill="none" fill-rule="evenodd">
        <g id="Home-v2-head-CTA" transform="translate(-326.000000, -2102.000000)">
            <g id="speaking-media" transform="translate(326.000000, 2102.000000)">
                <circle id="Oval" fill="#402039" cx="35" cy="35" r="35"></circle>
                <g id="forum-white" transform="translate(17.000000, 17.000000)" fill="#FFFFFF">
                    <path d="M34.4571429,30.0489796 C34.2367347,30.2693878 34.1632653,30.5632653 34.3836735,30.7836735 C34.677551,31.1510204 34.8979592,31.6653061 34.8979592,32.1061224 L34.8979592,34.8979592 L28.8734694,34.8979592 L28.8734694,32.1061224 C28.8734694,31.5918367 29.0204082,31.1510204 29.3877551,30.7836735 C29.6081633,30.5632653 29.5346939,30.1959184 29.3142857,30.0489796 C29.0938776,29.8285714 28.7265306,29.9020408 28.5795918,30.122449 C28.1387755,30.7102041 27.844898,31.444898 27.844898,32.1795918 L27.844898,35.4857143 C27.844898,35.7795918 28.0653061,36 28.3591837,36 L35.4857143,36 C35.7795918,36 36,35.7795918 36,35.4857143 L36,32.1795918 C36,31.444898 35.7795918,30.7102041 35.2653061,30.122449 C35.044898,29.9020408 34.677551,29.8285714 34.4571429,30.0489796 Z" id="Path"></path>
                    <path d="M34.1632653,27.9918367 C34.1632653,26.7428571 33.1346939,25.6408163 31.8122449,25.6408163 C30.4897959,25.6408163 29.4612245,26.6693878 29.4612245,27.9918367 C29.4612245,29.2408163 30.4897959,30.3428571 31.8122449,30.3428571 C33.1346939,30.3428571 34.1632653,29.2408163 34.1632653,27.9918367 Z M30.5632653,27.9918367 C30.5632653,27.3306122 31.1510204,26.7428571 31.8122449,26.7428571 C32.4734694,26.7428571 33.0612245,27.3306122 33.0612245,27.9918367 C33.0612245,28.6530612 32.4734694,29.2408163 31.8122449,29.2408163 C31.1510204,29.2408163 30.5632653,28.6530612 30.5632653,27.9918367 Z" id="Shape"></path>
                    <path d="M1.1755102,11.0204082 L8.30204082,11.0204082 C8.59591837,11.0204082 8.81632653,10.8 8.81632653,10.5061224 L8.81632653,7.2 C8.81632653,6.46530612 8.59591837,5.73061224 8.08163265,5.14285714 C7.86122449,4.92244898 7.56734694,4.84897959 7.34693878,5.06938776 C7.12653061,5.28979592 7.05306122,5.58367347 7.27346939,5.80408163 C7.56734694,6.17142857 7.7877551,6.68571429 7.7877551,7.12653061 L7.7877551,9.91836735 L1.76326531,9.91836735 L1.76326531,7.12653061 C1.76326531,6.6122449 1.91020408,6.17142857 2.27755102,5.80408163 C2.49795918,5.58367347 2.4244898,5.21632653 2.20408163,5.06938776 C1.98367347,4.84897959 1.61632653,4.92244898 1.46938776,5.14285714 C1.02857143,5.73061224 0.734693878,6.46530612 0.734693878,7.2 L0.734693878,10.5061224 C0.66122449,10.8 0.881632653,11.0204082 1.1755102,11.0204082 Z" id="Path"></path>
                    <path d="M4.7755102,5.36326531 C6.0244898,5.36326531 7.12653061,4.33469388 7.12653061,3.0122449 C7.12653061,1.68979592 6.09795918,0.66122449 4.7755102,0.66122449 C3.45306122,0.66122449 2.4244898,1.68979592 2.4244898,3.0122449 C2.4244898,4.33469388 3.45306122,5.36326531 4.7755102,5.36326531 Z M4.7755102,1.76326531 C5.43673469,1.76326531 6.0244898,2.35102041 6.0244898,3.0122449 C6.0244898,3.67346939 5.43673469,4.26122449 4.7755102,4.26122449 C4.11428571,4.26122449 3.52653061,3.67346939 3.52653061,3.0122449 C3.52653061,2.35102041 4.04081633,1.76326531 4.7755102,1.76326531 Z" id="Shape"></path>
                    <path d="M22.3346939,20.2040816 C22.2612245,20.0571429 22.0408163,19.9102041 21.8938776,19.9102041 L1.1755102,19.9102041 C0.881632653,19.9102041 0.66122449,20.1306122 0.66122449,20.4244898 L0.66122449,35.4122449 C0.66122449,35.7061224 0.881632653,35.9265306 1.1755102,35.9265306 L21.8204082,35.9265306 C22.0408163,35.9265306 22.1877551,35.8530612 22.2612245,35.6326531 L26.522449,28.1387755 C26.5959184,27.9918367 26.5959184,27.7714286 26.522449,27.6244898 L22.3346939,20.2040816 Z M21.5265306,34.8979592 L1.68979592,34.8979592 L1.68979592,21.0122449 L21.5265306,21.0122449 L25.4938776,27.9918367 L21.5265306,34.8979592 Z" id="Shape"></path>
                    <path d="M35.4122449,0.734693878 L16.1632653,0.734693878 C15.9428571,0.734693878 15.7959184,0.808163265 15.722449,1.02857143 L11.4612245,8.52244898 C11.3877551,8.66938776 11.3877551,8.88979592 11.4612245,9.03673469 L15.722449,16.5306122 C15.7959184,16.677551 16.0163265,16.8244898 16.1632653,16.8244898 L35.4122449,16.8244898 C35.7061224,16.8244898 35.9265306,16.6040816 35.9265306,16.3102041 L35.9265306,1.32244898 C35.9265306,0.955102041 35.7061224,0.734693878 35.4122449,0.734693878 Z M34.8244898,15.6489796 L16.4571429,15.6489796 L12.4897959,8.66938776 L16.4571429,1.68979592 L34.8244898,1.68979592 L34.8244898,15.6489796 Z" id="Shape"></path>
                    <path d="M25.7877551,6.75918367 L31.5183673,6.75918367 C31.8122449,6.75918367 32.0326531,6.53877551 32.0326531,6.24489796 C32.0326531,5.95102041 31.8122449,5.73061224 31.5183673,5.73061224 L25.7877551,5.73061224 C25.4938776,5.73061224 25.2734694,5.95102041 25.2734694,6.24489796 C25.2,6.53877551 25.4938776,6.75918367 25.7877551,6.75918367 Z" id="Path"></path>
                    <path d="M17.9265306,6.75918367 L22.1877551,6.75918367 C22.4816327,6.75918367 22.7020408,6.53877551 22.7020408,6.24489796 C22.7020408,5.95102041 22.4816327,5.73061224 22.1877551,5.73061224 L17.9265306,5.73061224 C17.6326531,5.73061224 17.4122449,5.95102041 17.4122449,6.24489796 C17.4122449,6.53877551 17.6326531,6.75918367 17.9265306,6.75918367 Z" id="Path"></path>
                    <path d="M17.9265306,11.755102 L27.9183673,11.755102 C28.2122449,11.755102 28.4326531,11.5346939 28.4326531,11.2408163 C28.4326531,10.9469388 28.2122449,10.7265306 27.9183673,10.7265306 L17.9265306,10.7265306 C17.6326531,10.7265306 17.4122449,10.9469388 17.4122449,11.2408163 C17.4122449,11.5346939 17.6326531,11.755102 17.9265306,11.755102 Z" id="Path"></path>
                    <path d="M19.322449,24.9061224 L15.0612245,24.9061224 C14.7673469,24.9061224 14.5469388,25.1265306 14.5469388,25.4204082 C14.5469388,25.7142857 14.7673469,25.9346939 15.0612245,25.9346939 L19.322449,25.9346939 C19.6163265,25.9346939 19.8367347,25.7142857 19.8367347,25.4204082 C19.9102041,25.2 19.6163265,24.9061224 19.322449,24.9061224 Z" id="Path"></path>
                    <path d="M12.0489796,25.4938776 C12.0489796,25.2 11.8285714,24.9795918 11.5346939,24.9795918 L5.14285714,24.9795918 C4.84897959,24.9795918 4.62857143,25.2 4.62857143,25.4938776 C4.62857143,25.7877551 4.84897959,26.0081633 5.14285714,26.0081633 L11.5346939,26.0081633 C11.8285714,26.0081633 12.0489796,25.7877551 12.0489796,25.4938776 Z" id="Path"></path>
                    <path d="M15.7959184,29.9020408 L12.3428571,29.9020408 C12.0489796,29.9020408 11.8285714,30.122449 11.8285714,30.4163265 C11.8285714,30.7102041 12.0489796,30.9306122 12.3428571,30.9306122 L15.7959184,30.9306122 C16.0897959,30.9306122 16.3102041,30.7102041 16.3102041,30.4163265 C16.3102041,30.1959184 16.0897959,29.9020408 15.7959184,29.9020408 Z" id="Path"></path>
                    <path d="M8.74285714,29.9020408 L5.06938776,29.9020408 C4.7755102,29.9020408 4.55510204,30.122449 4.55510204,30.4163265 C4.55510204,30.7102041 4.7755102,30.9306122 5.06938776,30.9306122 L8.74285714,30.9306122 C9.03673469,30.9306122 9.25714286,30.7102041 9.25714286,30.4163265 C9.33061224,30.1959184 9.03673469,29.9020408 8.74285714,29.9020408 Z" id="Path"></path>
                </g>
            </g>
        </g>
    </g>
</svg>