<?xml version="1.0" encoding="UTF-8"?>
<svg width="70px" height="70px" viewBox="0 0 70 70" version="1.1" xmlns="http://www.w3.org/2000/svg" xmlns:xlink="http://www.w3.org/1999/xlink">
    <!-- Generator: Sketch 54 (76480) - https://sketchapp.com -->
    <title>trainign-speaking</title>
    <desc>Created with Sketch.</desc>
    <defs>
        <polygon id="path-1" points="0 0.11742 35.814088 0.11742 35.814088 22.8 0 22.8"></polygon>
        <polygon id="path-3" points="0.574864 0.00076 18.511624 0.00076 18.511624 23.121936 0.574864 23.121936"></polygon>
    </defs>
    <g id="Layouts" stroke="none" stroke-width="1" fill="none" fill-rule="evenodd">
        <g id="Home-v2-head-CTA" transform="translate(-125.000000, -2102.000000)">
            <g id="trainign-speaking" transform="translate(125.000000, 2102.000000)">
                <circle id="Oval" fill="#402039" cx="35" cy="35" r="35"></circle>
                <g id="Group-9" transform="translate(17.000000, 16.000000)">
                    <g id="Group-3" transform="translate(0.000000, 14.439620)">
                        <mask id="mask-2" fill="white">
                            <use xlink:href="#path-1"></use>
                        </mask>
                        <g id="Clip-2"></g>
                        <path d="M20.844368,18.12942 L10.418688,18.12942 C10.319128,18.12942 10.221088,18.15602 10.135208,18.2077 L4.986968,21.27506 L4.986968,18.68194 C4.986968,18.37642 4.739208,18.12942 4.434448,18.12942 L1.105648,18.12942 L1.105648,6.21414 L5.546328,6.21414 L5.546328,13.69026 C5.546328,13.99654 5.793328,14.2443 6.098848,14.2443 L20.844368,14.2443 L20.844368,18.12942 Z M35.261568,0.11742 L33.643528,0.11742 C33.337248,0.11742 33.090248,0.36442 33.090248,0.66994 C33.090248,0.97622 33.337248,1.22322 33.643528,1.22322 L34.708288,1.22322 L34.708288,13.1385 L31.379488,13.1385 C31.073968,13.1385 30.826968,13.3855 30.826968,13.69026 L30.826968,16.28262 L25.678728,13.21526 C25.593608,13.1651 25.494808,13.1385 25.396008,13.1385 L6.651368,13.1385 L6.651368,1.22322 L8.094608,1.22322 C8.399368,1.22322 8.647128,0.97622 8.647128,0.66994 C8.647128,0.36442 8.399368,0.11742 8.094608,0.11742 L6.098848,0.11742 C5.793328,0.11742 5.546328,0.36442 5.546328,0.66994 L5.546328,5.1091 L0.552368,5.1091 C0.246848,5.1091 -0.000152,5.35534 -0.000152,5.66162 L-0.000152,18.68194 C-0.000152,18.98746 0.246848,19.23446 0.552368,19.23446 L3.881168,19.23446 L3.881168,22.2471 C3.881168,22.44622 3.988328,22.62938 4.160848,22.72742 C4.245968,22.77606 4.340208,22.80038 4.434448,22.80038 C4.532488,22.80038 4.630528,22.77378 4.717168,22.72286 L10.570688,19.23446 L21.397648,19.23446 C21.702408,19.23446 21.949408,18.98746 21.949408,18.68194 L21.949408,14.2443 L25.244008,14.2443 L31.096768,17.73118 C31.183408,17.7821 31.282208,17.80794 31.379488,17.80794 C31.473728,17.80794 31.568728,17.78438 31.653088,17.73498 C31.825608,17.6377 31.932768,17.45378 31.932768,17.25542 L31.932768,14.2443 L35.261568,14.2443 C35.567088,14.2443 35.814088,13.99654 35.814088,13.69026 L35.814088,0.66994 C35.814088,0.36442 35.567088,0.11742 35.261568,0.11742 L35.261568,0.11742 Z" id="Fill-1" fill="#FFFFFF" mask="url(#mask-2)"></path>
                    </g>
                    <path d="M10.857816,23.881708 L11.836696,23.881708 C12.141456,23.881708 12.389216,23.633948 12.389216,23.328428 C12.389216,23.022908 12.141456,22.775908 11.836696,22.775908 L11.411096,22.775908 L11.411096,13.173308 L11.836696,13.173308 C12.141456,13.173308 12.389216,12.926308 12.389216,12.620788 C12.389216,12.314508 12.141456,12.067508 11.836696,12.067508 L10.857816,12.067508 C10.553056,12.067508 10.305296,12.314508 10.305296,12.620788 L10.305296,23.328428 C10.305296,23.633948 10.553056,23.881708 10.857816,23.881708" id="Fill-4" fill="#FFFFFF"></path>
                    <g id="Group-8" transform="translate(12.920000, 0.759620)">
                        <mask id="mask-4" fill="white">
                            <use xlink:href="#path-3"></use>
                        </mask>
                        <g id="Clip-7"></g>
                        <path d="M1.680664,12.076856 C2.385944,11.301656 5.300544,7.991096 6.197344,5.217856 C6.501344,4.273176 6.182144,2.159616 6.006584,1.178456 C6.253584,1.130576 6.635864,1.088016 7.190664,1.111576 C8.267584,1.154136 9.182624,2.659696 9.364264,4.691936 C9.523104,6.446776 9.175784,7.925736 9.019984,8.480536 C8.972104,8.646976 9.006304,8.825576 9.110424,8.963896 C9.215304,9.102216 9.377944,9.182776 9.551224,9.182776 L16.095584,9.182776 C16.638224,9.182776 17.244704,9.768736 17.244704,10.552296 C17.244704,11.553976 16.696744,11.885336 16.583504,11.910416 C16.284064,11.918016 16.045424,12.163496 16.045424,12.464456 C16.046184,12.768456 16.293184,13.015456 16.597944,13.015456 C16.879904,13.015456 17.405824,13.353656 17.405824,14.166856 C17.405824,14.669216 17.173264,15.129776 16.767424,15.429976 C16.641264,15.524216 16.560704,15.667856 16.547024,15.825176 C16.532584,15.981736 16.585784,16.136776 16.693704,16.252296 C16.971104,16.547936 17.123104,16.930216 17.123104,17.329976 C17.123104,18.065656 16.597944,18.712416 15.872904,18.867456 C15.702664,18.903176 15.558264,19.018696 15.486824,19.177536 C15.413104,19.337136 15.420704,19.520296 15.504304,19.673056 C15.635024,19.910936 15.703424,20.174656 15.703424,20.439896 C15.703424,21.256136 15.090864,21.931016 14.257144,22.010056 C14.238144,22.013096 14.219904,22.016136 14.200144,22.016136 L1.680664,22.016136 L1.680664,12.076856 Z M1.127384,23.121936 L14.200144,23.121936 C14.269304,23.121936 14.337704,23.115096 14.384064,23.109016 C15.766504,22.976776 16.809224,21.829936 16.809224,20.439896 C16.809224,20.202776 16.777304,19.966416 16.714224,19.737656 C17.619384,19.296856 18.228904,18.365096 18.228904,17.329976 C18.228904,16.835976 18.092104,16.357176 17.838264,15.939176 C18.266904,15.453536 18.511624,14.821976 18.511624,14.166856 C18.511624,13.382536 18.196224,12.765416 17.756944,12.377056 C18.098944,11.962096 18.350504,11.349536 18.350504,10.552296 C18.350504,9.210896 17.317664,8.076976 16.095584,8.076976 L10.254224,8.076976 C10.422184,7.265296 10.593184,6.010536 10.465504,4.592376 C10.225344,1.916416 8.927264,0.074176 7.233224,0.007296 C5.790744,-0.050464 5.189584,0.265696 5.084704,0.330296 C4.886344,0.451896 4.784504,0.684456 4.831624,0.912456 C5.069504,2.082856 5.365144,4.194896 5.145504,4.877376 C4.220584,7.738016 0.760304,11.445296 0.724584,11.482536 C0.628824,11.585896 0.574864,11.720416 0.574864,11.861016 L0.574864,22.569416 C0.574864,22.874176 0.822624,23.121936 1.127384,23.121936 L1.127384,23.121936 Z" id="Fill-6" fill="#FFFFFF" mask="url(#mask-4)"></path>
                    </g>
                </g>
            </g>
        </g>
    </g>
</svg>