<?xml version="1.0" encoding="UTF-8"?>
<svg width="39px" height="39px" viewBox="0 0 39 39" version="1.1" xmlns="http://www.w3.org/2000/svg" xmlns:xlink="http://www.w3.org/1999/xlink">
    <!-- Generator: Sketch 53.2 (72643) - https://sketchapp.com -->
    <title>Group 16</title>
    <desc>Created with Sketch.</desc>
    <g id="Layouts" stroke="none" stroke-width="1" fill="none" fill-rule="evenodd">
        <g id="Home-v2" transform="translate(-286.000000, -4705.000000)">
            <g id="Group-35" transform="translate(-7.000000, 4055.000000)">
                <g id="Group-6" transform="translate(293.000000, 605.000000)">
                    <g id="Stacked-Group" transform="translate(0.000000, 45.000000)">
                        <g id="Group-16">
                            <path d="M19.4683442,-6.39488462e-14 C16.7775822,-6.39488462e-14 14.2517345,0.50781039 11.8907252,1.5234413 C9.52971584,2.53907221 7.47210623,3.92399766 5.71783558,5.67826831 C3.96356696,7.43253896 2.5720424,9.49014857 1.5432224,11.8511579 C0.514402403,14.2121673 0,16.7380149 0,19.4287769 C0,22.1195388 0.514402403,24.6453865 1.5432224,27.0063958 C2.5720424,29.3674052 3.96356696,31.4250148 5.71783558,33.1792855 C7.47210623,34.9335541 9.52971584,36.3250786 11.8907252,37.3538986 C14.2517345,38.3827186 16.7775822,38.897121 19.4683442,38.897121 C22.1591061,38.897121 24.6849538,38.3827186 27.0459631,37.3538986 C29.4069725,36.3250786 31.4645821,34.9335541 33.2188527,33.1792855 C34.9731234,31.4250148 36.3646434,29.3674052 37.3934634,27.0063958 C38.4222884,24.6453865 38.9366883,22.1195388 38.9366883,19.4287769 C38.9366883,16.7380149 38.4222884,14.2121673 37.3934634,11.8511579 C36.3646434,9.49014857 34.9731234,7.43253896 33.2188527,5.67826831 C31.4645821,3.92399766 29.4069725,2.53907221 27.0459631,1.5234413 C24.6849538,0.50781039 22.1591061,-6.39488462e-14 19.4683442,-6.39488462e-14 Z" id="Path" fill="#1CA1F2"></path>
                            <path d="M27.3823052,15.9070668 C27.3823052,15.9862064 27.3823052,16.0719355 27.3823052,16.1642692 C27.3823052,16.2565979 27.3823052,16.3423321 27.3823052,16.4214717 C27.3823052,17.6877105 27.1448864,18.9671232 26.6700487,20.2597403 C26.195211,21.5523623 25.4961487,22.7196627 24.5728465,23.7616718 C23.6495494,24.8036809 22.5152268,25.6544229 21.1698483,26.313923 C19.8244648,26.9734231 18.268071,27.3031706 16.5006062,27.3031706 C15.4190299,27.3031706 14.3836305,27.151486 13.3943778,26.8481166 C12.4051301,26.5447473 11.4752486,26.1292656 10.6047078,25.6016665 C10.762987,25.6016665 10.9212662,25.608261 11.0795455,25.6214501 C11.2378247,25.6346392 11.3961039,25.6412338 11.5543831,25.6412338 C12.4513021,25.6412338 13.302044,25.4961487 14.1066343,25.2059684 C14.9112245,24.9157882 15.6432596,24.5200952 16.3027597,24.0188743 C15.4586022,23.9924961 14.7133781,23.7286991 14.067067,23.2274782 C13.420756,22.7262573 12.965707,22.0931455 12.7019049,21.3281275 C12.833806,21.3545057 12.9591125,21.3742944 13.0778194,21.3874835 C13.1965313,21.4006726 13.3086436,21.4072671 13.4141665,21.4072671 C13.5988239,21.4072671 13.7768868,21.3940781 13.9483551,21.3676948 C14.1198284,21.3413166 14.2846971,21.3149384 14.4429764,21.2885603 C13.5724406,21.1038978 12.8404056,20.6620379 12.246856,19.9629705 C11.6533064,19.2638981 11.3565366,18.4527284 11.3565366,17.5294262 L11.3565366,17.489859 C11.6203336,17.6217549 11.8973197,17.7272727 12.1875,17.8064174 C12.4776803,17.885557 12.7810445,17.9383134 13.0976081,17.9646966 C12.5963871,17.6217549 12.1875,17.166706 11.8709416,16.5995345 C11.5543831,16.0323682 11.3961039,15.41904 11.3961039,14.7595399 C11.3961039,14.4165982 11.4422657,14.0802612 11.5345995,13.7505086 C11.6269282,13.420761 11.7522296,13.1107971 11.9105088,12.8206169 C12.8601892,13.9813379 14.0143005,14.9244086 15.3728681,15.6498592 C16.7314406,16.3753099 18.2152944,16.7775974 19.8244699,16.8567421 C19.7717135,16.6984578 19.7387357,16.5467782 19.7255466,16.4016881 C19.7123575,16.2565979 19.705763,16.1181023 19.705763,15.9862013 C19.705763,14.9310031 20.0816723,14.0274997 20.8335012,13.2756709 C21.58533,12.5238421 22.4888334,12.1479327 23.5440366,12.1479327 C24.0980139,12.1479327 24.6124188,12.2534505 25.0872565,12.4644912 C25.5620942,12.6755318 25.9841704,12.965707 26.3534903,13.3350269 C26.7755716,13.2558873 27.1910482,13.1371804 27.5999404,12.9788961 C28.0088275,12.8206169 28.397926,12.6359595 28.7672509,12.4249239 C28.6353499,12.8733834 28.4243092,13.2756709 28.134134,13.6318017 C27.8439538,13.9879325 27.5010171,14.2978913 27.105314,14.5616883 C27.474639,14.5089319 27.8439487,14.4297923 28.2132686,14.3242745 C28.5825935,14.2187517 28.9387142,14.0868557 29.2816558,13.9285714 C29.044237,14.3242745 28.7606564,14.6869948 28.4309038,15.0167423 C28.1011562,15.3464949 27.7516251,15.6432647 27.3823052,15.9070668 Z" id="Path" fill="#E0E7EA"></path>
                        </g>
                    </g>
                </g>
            </g>
        </g>
    </g>
</svg>