<?xml version="1.0" encoding="UTF-8"?>
<svg width="40px" height="31px" viewBox="0 0 40 31" version="1.1" xmlns="http://www.w3.org/2000/svg" xmlns:xlink="http://www.w3.org/1999/xlink">
    <!-- Generator: Sketch 53.2 (72643) - https://sketchapp.com -->
    <title>Group 14</title>
    <desc>Created with Sketch.</desc>
    <g id="Layouts" stroke="none" stroke-width="1" fill="none" fill-rule="evenodd">
        <g id="Home-v2" transform="translate(-490.000000, -4714.000000)">
            <g id="Group-35" transform="translate(-7.000000, 4055.000000)">
                <g id="Group-6" transform="translate(293.000000, 605.000000)">
                    <g id="Stacked-Group" transform="translate(0.000000, 40.000000)">
                        <g id="Group-14" transform="translate(204.000000, 14.000000)">
                            <path d="M20,0 C15.0781,0 11.269545,0.16276 8.57422,0.48828 C5.878895,0.813805 3.8932355,1.51041 2.6171875,2.578125 C1.3411395,3.64584 0.5859385,5.1953 0.3515625,7.22656 C0.11718635,9.257825 0,11.97915 0,15.390625 C0,18.8021 0.11718635,21.523425 0.3515625,23.55469 C0.5859385,25.58595 1.3411395,27.1419215 2.6171875,28.222656 C3.8932355,29.303391 5.878895,29.9999985 8.57422,30.3125 C11.269545,30.6250016 15.0781,30.78125 20,30.78125 C24.9219,30.78125 28.730455,30.6250016 31.42578,30.3125 C34.121105,29.9999985 36.106765,29.303391 37.38281,28.222656 C38.65886,27.1419215 39.41406,25.58595 39.64844,23.55469 C39.882815,21.523425 40,18.8021 40,15.390625 C40,11.97915 39.882815,9.257825 39.64844,7.22656 C39.41406,5.1953 38.65886,3.64584 37.38281,2.578125 C36.106765,1.51041 34.121105,0.813805 31.42578,0.48828 C28.730455,0.16276 24.9219,0 20,0 Z" id="Path" fill="#FF0000"></path>
                            <path d="M26.40625,16.05469 L17.421875,20.27344 C17.03125,20.45573 16.69922,20.45573 16.42578,20.27344 C16.15234,20.091145 16.015625,19.77865 16.015625,19.33594 L16.015625,11.44531 C16.015625,11.028645 16.15234,10.72917 16.42578,10.546875 C16.69922,10.36458 17.03125,10.36458 17.421875,10.546875 L26.40625,14.72656 C26.796875,14.908855 26.99219,15.130205 26.99219,15.390625 C26.99219,15.651045 26.796875,15.872395 26.40625,16.05469 Z" id="Path" fill="#E0E7EA"></path>
                        </g>
                    </g>
                </g>
            </g>
        </g>
    </g>
</svg>