<?xml version="1.0" standalone="no"?>
<!DOCTYPE svg PUBLIC "-//W3C//DTD SVG 20010904//EN"
 "http://www.w3.org/TR/2001/REC-SVG-20010904/DTD/svg10.dtd">
<svg version="1.0" xmlns="http://www.w3.org/2000/svg"
 width="160.000000pt" height="160.000000pt" viewBox="0 0 160.000000 160.000000"
 preserveAspectRatio="xMidYMid meet">
<metadata>
Created by potrace 1.11, written by Peter Selinger 2001-2013
</metadata>
<g transform="translate(0.000000,160.000000) scale(0.100000,-0.100000)"
fill="#000000" stroke="none">
<path d="M126 887 c-5 -11 -9 -56 -10 -100 l-1 -82 63 -3 c38 -2 62 1 62 8 0
5 -22 10 -50 10 l-49 0 -3 93 c-2 62 -6 86 -12 74z"/>
<path d="M293 892 c-12 -2 -27 -10 -34 -18 -16 -19 -12 -145 5 -162 20 -21
117 -18 133 4 21 28 20 140 0 161 -13 13 -69 21 -104 15z m80 -24 c13 -7 17
-22 17 -74 0 -57 -2 -66 -22 -73 -12 -4 -33 -7 -47 -5 -14 1 -32 2 -38 3 -17
1 -18 132 -1 149 13 13 63 13 91 0z"/>
<path d="M475 892 c-33 -6 -45 -32 -45 -97 0 -83 12 -98 81 -96 61 1 79 16 79
66 0 31 -1 32 -40 30 -22 -1 -43 -5 -47 -8 -6 -7 18 -11 50 -8 10 2 17 -5 17
-16 0 -33 -17 -46 -60 -46 -51 0 -60 12 -60 78 0 63 10 78 52 80 40 3 68 -10
68 -31 0 -8 5 -12 10 -9 12 7 13 25 1 43 -8 14 -70 22 -106 14z"/>
<path d="M644 890 c-32 -12 -35 -23 -35 -97 0 -77 10 -91 66 -94 52 -3 83 8
90 31 12 37 7 132 -7 146 -17 17 -85 25 -114 14z m94 -24 c7 -4 12 -31 12 -72
0 -69 -4 -75 -56 -76 -66 -1 -64 -3 -64 70 0 37 5 73 11 79 12 12 77 11 97 -1z"/>
<path d="M1054 891 c-2 -2 -4 -46 -4 -98 l0 -93 66 0 c41 0 63 4 59 10 -3 6
-28 10 -55 10 -48 0 -48 0 -47 33 2 31 4 32 50 35 61 4 61 22 -1 22 -46 0 -47
1 -48 30 -1 17 2 31 7 31 5 1 27 2 48 3 37 1 70 15 40 17 -52 3 -111 3 -115 0z"/>
<path d="M1199 885 c-1 -13 -1 -144 0 -167 2 -37 21 -16 21 23 l0 40 48 -3
c47 -3 47 -3 50 -41 2 -22 8 -37 14 -35 15 5 18 35 7 66 -7 17 -6 29 1 36 14
14 13 49 -3 70 -10 13 -29 18 -75 19 -35 1 -62 -2 -63 -8z m123 -23 c6 -6 8
-22 4 -36 -6 -26 -29 -34 -78 -27 -24 3 -28 8 -28 35 0 18 2 35 5 38 9 9 86 1
97 -10z"/>
<path d="M1387 892 c-14 -3 -17 -18 -17 -98 l0 -94 60 0 c33 0 60 4 60 10 0 6
-22 10 -48 10 -48 0 -48 0 -49 35 l-1 35 49 0 c27 0 49 5 49 10 0 6 -22 10
-49 10 -46 0 -48 1 -46 28 1 15 3 30 3 33 1 3 22 5 47 4 25 -1 48 2 51 7 3 4
2 8 -3 9 -38 3 -93 3 -106 1z"/>
<path d="M869 888 c-1 -4 -1 -127 0 -160 2 -47 21 -31 21 17 l0 45 55 0 55 0
0 -45 c0 -30 4 -45 13 -45 9 0 12 25 12 95 0 69 -3 95 -12 95 -8 0 -13 -15
-13 -40 l0 -40 -55 0 -55 0 0 40 c0 22 -4 40 -10 40 -5 0 -10 -1 -11 -2z"/>
</g>
</svg>
