<?xml version="1.0" encoding="UTF-8"?>
<svg width="1463px" height="709px" viewBox="0 0 1463 709" version="1.1" xmlns="http://www.w3.org/2000/svg" xmlns:xlink="http://www.w3.org/1999/xlink">
    <!-- Generator: Sketch 53.2 (72643) - https://sketchapp.com -->
    <title>Group 2</title>
    <desc>Created with Sketch.</desc>
    <defs>
        <linearGradient x1="4.87982211%" y1="46.5281737%" x2="35.193459%" y2="46.5281737%" id="linearGradient-1">
            <stop stop-color="#FFFFFF" offset="0%"></stop>
            <stop stop-color="#FFFFFF" stop-opacity="0.210008741" offset="100%"></stop>
        </linearGradient>
        <path d="M1677.40052,558.588354 L1766,640.721753 L1714.15235,686.711297 L1562,545.663184 L1592.99945,518.166268 L1635.56815,479.466013 C1688.05308,431.744152 1757.84324,405.464423 1832.08255,405.461982 C1906.3138,405.461982 1976.10396,431.739271 2028.59157,479.453809 C2081.08724,527.170789 2110,590.611184 2110,658.093488 C2110.00269,725.570911 2081.0953,789.011306 2028.60231,836.730726 C1976.1147,884.447705 1906.32454,910.729876 1832.09329,910.729876 C1757.85667,910.732317 1688.06651,884.452587 1635.58158,836.738048 L1503.49796,716.676759 L1242.55547,953.892386 C1063.14224,1116.99415 771.203394,1116.99903 591.78748,953.902149 C504.869304,874.896987 457.002685,769.851291 457,658.117896 C456.997315,546.386941 504.858564,441.336364 591.77674,362.326321 C681.476642,280.77544 799.318689,240.002441 917.155367,240 C1034.99473,240 1152.83141,280.768118 1242.54473,362.316558 L1310.18953,423.806781 L1245.75338,482.380288 L1178.10859,420.890065 C1034.21875,290.099167 800.100043,290.099167 656.210198,420.899828 C586.508646,484.26456 548.122985,568.510046 548.122985,658.117896 C548.12567,747.723305 586.516702,831.96635 656.220939,895.32376 C725.925176,958.688491 818.594757,993.584126 917.168792,993.581685 C1015.74283,993.581685 1108.41509,958.68361 1178.11933,895.321319 L1503.49527,599.527303 L1700.00967,778.166982 C1735.28871,810.231327 1782.19408,827.897593 1832.0906,827.895152 C1881.97908,827.892712 1928.88981,810.228887 1964.16886,778.159659 C1999.4479,746.08311 2018.87433,703.445365 2018.87433,658.095929 C2018.87433,612.744052 1999.44253,570.101426 1964.15811,538.032198 C1928.88176,505.96053 1881.97639,488.299146 1832.08523,488.299146 C1782.19139,488.299146 1735.28334,505.962971 1700.00967,538.034639 L1677.40052,558.588354 Z M1061.18063,768.008344 L958,673.169198 L1016.97376,621.338912 L1170,761.993982 L1168.70884,763.128748 L1182.06229,775.26618 L1114.42802,836.756268 C1061.94292,884.475584 992.149849,910.757697 917.910299,910.760138 C843.678805,910.762578 773.888419,884.480465 721.395266,836.76359 C668.902113,789.051597 639.99463,725.611341 640,658.129184 C640,590.649469 668.896743,527.206772 721.389896,479.494778 C773.877679,431.773022 843.668065,405.49335 917.902244,405.490909 C992.139109,405.490909 1061.92412,431.76814 1114.42265,479.482574 L1246.49327,599.543601 L1507.44197,362.328494 C1597.14485,280.775351 1714.98728,240.002441 1832.82703,240 C1950.6614,240 2068.50115,280.768029 2158.21477,362.318731 C2245.13054,441.32616 2292.99731,546.371626 2293,658.104777 C2293,769.835487 2245.1386,874.885834 2158.22819,953.893264 C1978.8117,1116.99467 1686.8719,1116.99711 1507.45271,953.905467 L1439.8077,892.415379 L1504.24137,833.839559 L1571.8837,895.327207 C1715.77401,1026.12026 1949.89884,1026.1227 2093.78915,895.319884 C2163.48825,831.957732 2201.8794,747.71243 2201.87672,658.104777 C2201.87135,568.497123 2163.48556,484.254262 2093.77841,420.894551 C2024.07395,357.532399 1931.40138,322.639281 1832.82434,322.639281 C1734.24999,322.641722 1641.57742,357.539721 1571.87296,420.901873 L1246.49327,716.692801 L1049.98361,538.058394 C1014.70445,505.991678 967.798933,488.327892 917.904929,488.330333 C868.013611,488.327892 821.102721,505.991678 785.820878,538.063276 C750.544405,570.134874 731.112541,612.772525 731.115226,658.129184 C731.115226,703.480962 750.54709,746.121054 785.831619,778.192652 C821.116147,810.259368 868.018981,827.923155 917.907614,827.920714 C967.804303,827.920714 1014.70982,810.256927 1049.9863,778.18533 L1061.18063,768.008344 Z" id="path-2"></path>
    </defs>
    <g id="Layouts" stroke="none" stroke-width="1" fill="none" fill-rule="evenodd">
        <g id="Home-v2" transform="translate(-427.000000, -1196.000000)">
            <g id="Group-2" transform="translate(-30.000000, 956.000000)">
                <g id="Brand-Compenets/Icon-Lrg">
                    <use fill="#F4F7FA" xlink:href="#path-2"></use>
                    <use fill="url(#linearGradient-1)" xlink:href="#path-2"></use>
                </g>
            </g>
        </g>
    </g>
</svg>