<svg width="44px" height="23px" viewBox="0 0 44 23" version="1.1" xmlns="http://www.w3.org/2000/svg" xmlns:xlink="http://www.w3.org/1999/xlink">
    <g id="Symbols" stroke="none" stroke-width="1" fill="none" fill-rule="evenodd">
        <g id="CTA-form" transform="translate(-342.000000, -555.000000)" fill="#F5F9FD">
            <g id="Group-8" transform="translate(5.000000, 0.000000)">
                <g id="Stacked-Group-3" transform="translate(337.000000, 555.000000)">
                    <g id="Brand-Compenets/Icon-Lrg-2">
                        <path d="M29.2757525,9.02721156 L31,10.7705806 L29.7292241,12 L26,8.22941937 L27.2707759,7 L27.6996404,7.43362061 L28.5194955,6.58643268 C29.7895482,5.27385884 31.4783603,4.55104365 33.2748348,4.55097652 C35.0711144,4.55097652 36.7599264,5.27372457 38.0300441,6.58609701 C39.3003567,7.89853658 40,9.64344346 40,11.4995217 C40.000065,13.3554656 39.3005516,15.1003725 38.030304,16.4128792 C36.7601863,17.7253188 35.0713743,18.4482011 33.2750947,18.4482011 C31.4786852,18.4482682 29.7898731,17.7254531 28.5198204,16.4130806 L25.3236045,13.110835 L19.0092069,19.6353715 C14.6676889,24.1214309 7.60322792,24.1215652 3.26164502,19.63564 C1.15836187,17.4626295 6.49743027e-05,14.5733827 0,11.500193 C-6.49743027e-05,8.42707043 1.15810197,5.5376894 3.26138512,3.36454458 C5.43198165,1.12151486 8.28357385,6.71324589e-05 11.1350361,0 C13.9865633,0 16.8380256,1.12131346 19.008947,3.36427605 L20.6458446,5.05554408 L19.0865913,6.66658883 L17.4496936,4.97532079 C13.9677857,1.37796085 8.30248137,1.37796085 4.82057346,4.97558932 C3.13390554,6.71841509 2.20503291,9.03555904 2.20503291,11.500193 C2.20509788,13.9647598 3.13410046,16.2818367 4.82083336,18.024461 C6.50756626,19.7672868 8.75002437,20.7270796 11.135361,20.7270124 C13.5206976,20.7270124 15.7632206,19.7671525 17.4499535,18.0243939 L25.3235395,9.88867833 L30.0788788,14.802103 C30.9325762,15.6840221 32.0676123,16.1699268 33.2750297,16.1698597 C34.4822523,16.1697926 35.6174183,15.683955 36.4711157,14.8019016 C37.324813,13.9196468 37.7949021,12.7469099 37.7949021,11.4995888 C37.7949021,10.2522006 37.3246831,9.0793294 36.4708558,8.19727603 C35.6172234,7.31515552 34.4821873,6.82938504 33.2748998,6.82938504 C32.0675473,6.82938504 30.9324462,7.31522265 30.0788788,8.19734316 L29.2757525,9.02721156 Z M14.1710775,14.5442186 L12,12.3463436 L13.3908905,11 L15.5175283,13.1528866 L15.5577315,13.1113433 L17.1170548,14.7223174 L15.4804118,16.4135817 C14.210355,17.7260856 12.5214725,18.4489663 10.7249921,18.4490334 C8.92870671,18.4491006 7.23988915,17.7262198 5.96963741,16.4137831 C4.69938567,15.1014807 3.99987005,13.3565777 4,11.5005035 C4,9.64449646 4.69925572,7.89952628 5.96950746,6.58722384 C7.23962926,5.27465288 8.92844682,4.55183928 10.7247972,4.55177215 C12.5212126,4.55177215 14.2099002,5.27451862 15.4802819,6.58688818 L18.6761833,9.88912661 L24.9907314,3.36460434 C27.1613999,1.1215124 30.0130014,6.71323119e-05 32.8645379,0 C35.7159444,0 38.5674809,1.12131101 40.7384094,3.36433581 C42.8416344,5.53740875 43.999935,8.42664919 44,11.4998322 C44,14.572948 42.8418293,17.4623227 40.7387342,19.6353957 C36.3971372,24.1214453 29.3326533,24.1215124 24.9909913,19.6357313 L23.3540884,17.944467 L24.9132818,16.3333586 L26.5501197,18.0245558 C30.0320389,21.621975 35.6974917,21.6220422 39.1794109,18.0243544 C40.8660193,16.2815996 41.7950249,13.9644607 41.7949599,11.4998322 C41.79483,9.0352036 40.8659543,6.71813185 39.179151,4.97544417 C37.4924126,3.23268935 35.2498822,2.27296582 32.8644729,2.27296582 C30.4791286,2.27303295 28.2365982,3.23289075 26.5498598,4.97564556 L18.6761833,13.1112762 L13.9209585,8.19799654 C13.0672584,7.31601222 11.9322186,6.83017568 10.7248622,6.83024281 C9.51757073,6.83017568 8.382401,7.31601222 7.52863589,8.1981308 C6.67500073,9.08024938 6.20478017,10.2529837 6.20484515,11.5005035 C6.20484515,12.747889 6.67506571,13.9206905 7.52889579,14.802809 C8.38272588,15.6847934 9.51770068,16.1706299 10.7249271,16.1705628 C11.9323485,16.1705628 13.0673883,15.6847262 13.9210235,14.8026077 L14.1710775,14.5442186 Z" id="Brand-Compenets/Icon-Lrg" transform="translate(22.000000, 11.500000) scale(1, -1) translate(-22.000000, -11.500000) "></path>
                    </g>
                </g>
            </g>
        </g>
    </g>
</svg>
