<?xml version="1.0" encoding="UTF-8"?>
<svg width="91px" height="100px" viewBox="0 0 91 100" version="1.1" xmlns="http://www.w3.org/2000/svg" xmlns:xlink="http://www.w3.org/1999/xlink">
    <!-- Generator: Sketch 53.2 (72643) - https://sketchapp.com -->
    <title>Fill 1</title>
    <desc>Created with Sketch.</desc>
    <defs>
        <filter x="-9.5%" y="-88.0%" width="119.1%" height="276.1%" filterUnits="objectBoundingBox" id="filter-1">
            <feOffset dx="0" dy="2" in="SourceAlpha" result="shadowOffsetOuter1"></feOffset>
            <feGaussianBlur stdDeviation="20" in="shadowOffsetOuter1" result="shadowBlurOuter1"></feGaussianBlur>
            <feColorMatrix values="0 0 0 0 0   0 0 0 0 0   0 0 0 0 0  0 0 0 0.211128715 0" type="matrix" in="shadowBlurOuter1" result="shadowMatrixOuter1"></feColorMatrix>
            <feMerge>
                <feMergeNode in="shadowMatrixOuter1"></feMergeNode>
                <feMergeNode in="SourceGraphic"></feMergeNode>
            </feMerge>
        </filter>
    </defs>
    <g id="Layouts" stroke="none" stroke-width="1" fill="none" fill-rule="evenodd" fill-opacity="0.2">
        <g id="Home-v2" transform="translate(-1239.000000, -1845.000000)" fill="#000000">
            <g id="Group-29" filter="url(#filter-1)" transform="translate(555.000000, 1845.000000)">
                <g id="Group-44">
                    <g id="Group-43" transform="translate(190.000000, 8.000000)">
                        <path d="M558.135527,34.161231 L527.787378,34.161231 L535.900477,24.7042781 C537.020328,23.3989346 537.020328,21.2842363 535.900477,19.9789763 C534.780626,18.6737163 532.966431,18.6736328 531.846651,19.9789763 L518.839892,35.1401759 C518.70551,35.2968172 518.587927,35.4665077 518.48154,35.6492641 C518.439548,35.7243266 518.408751,35.8059053 518.372357,35.8809594 C518.319163,35.995178 518.260372,36.1028637 518.21838,36.2236153 C518.184781,36.3215181 518.165186,36.4226791 518.139987,36.5238484 C518.111992,36.6315424 518.075598,36.7359699 518.055996,36.8501801 C518.028002,37.0198706 518.0168,37.192836 518.011202,37.3657929 C518.0084,37.411482 518,37.4539047 518,37.4995938 C518,37.5518075 518.011202,37.6007548 518.014004,37.6497104 C518.019602,37.8161427 518.028002,37.9825751 518.058798,38.1490074 C518.078393,38.2697506 518.114787,38.3774446 518.145584,38.4916632 C518.170776,38.5862996 518.187576,38.6809359 518.221175,38.7723142 C518.265969,38.9028485 518.327563,39.0235917 518.389156,39.1410768 C518.422748,39.2096063 518.447948,39.2814023 518.484342,39.3466653 C518.59073,39.5326799 518.711115,39.7056369 518.848292,39.8622781 L531.852901,55.0209715 C532.412826,55.6736432 533.146338,56 533.879814,56 C534.613289,56 535.346837,55.6736683 535.906726,55.0209715 C537.026578,53.7156279 537.026578,51.6009296 535.906726,50.2956697 L527.787894,40.8454002 L558.133176,40.8454002 C559.717739,40.8454002 560.999995,39.3507505 560.999995,37.5037208 C561.002791,35.656691 559.717739,34.1620413 558.135971,34.1620413 L558.135527,34.161231 Z" id="Fill-1" style="mix-blend-mode: multiply;" transform="translate(539.500000, 37.500000) rotate(-90.000000) translate(-539.500000, -37.500000) "></path>
                    </g>
                </g>
            </g>
        </g>
    </g>
</svg>