<?xml version="1.0" encoding="UTF-8"?>
<svg width="90px" height="45px" viewBox="0 0 90 45" version="1.1" xmlns="http://www.w3.org/2000/svg" xmlns:xlink="http://www.w3.org/1999/xlink">
    <!-- Generator: Sketch 53.2 (72643) - https://sketchapp.com -->
    <title>icon</title>
    <desc>Created with Sketch.</desc>
    <g id="Symbols" stroke="none" stroke-width="1" fill="none" fill-rule="evenodd">
        <g id="service-masthead" transform="translate(-890.000000, -148.000000)" fill="#E35F30">
            <g id="Group-5" transform="translate(-42.000000, 32.000000)">
                <g id="Stacked-Group" transform="translate(0.000000, 116.000000)">
                    <path d="M991.726149,17.2199139 L996,21.5411613 L993.458448,24 L986,16.4588387 L988.541552,14 L988.588819,14.0477913 L989.751978,12.8864987 C992.323835,10.3184195 995.74368,8.90421584 999.38154,8.9040845 C1003.01901,8.9040845 1006.43885,10.3181568 1009.01084,12.885842 C1011.58322,15.4536585 1013,18.8676068 1013,22.4990642 C1013.00013,26.1302589 1011.58362,29.5442071 1009.01137,32.112155 C1006.43938,34.6799715 1003.01953,36.0943065 999.382067,36.0943065 C995.744337,36.0944379 992.324493,34.6802342 989.752636,32.112549 L983.280299,25.6516336 L970.493644,38.4170312 C961.70207,47.194104 947.396537,47.1943667 938.604831,38.4175566 C934.345683,34.1660142 932.000132,28.5131401 932,22.5003776 C931.999868,16.4877465 934.345156,10.8346097 938.604305,6.5828046 C942.999763,2.1942682 948.774237,0.000131346115 954.548448,0 C960.322791,0 966.097002,2.19387416 970.493118,6.58227922 L973.807835,9.8912819 L970.650347,13.043326 L967.33563,9.73432329 C960.284766,2.69601036 948.812525,2.69601036 941.761661,9.73484868 C938.346159,13.1447252 936.465192,17.6782677 936.465192,22.5003776 C936.465323,27.3223562 938.346553,31.8557674 941.762188,35.2652498 C945.177822,38.6751263 949.718799,40.5529817 954.549106,40.5528504 C959.379413,40.5528504 963.920522,38.6748636 967.336156,35.2651185 L983.280168,19.3474141 L992.90973,28.9606363 C994.638467,30.6861302 996.936915,31.6368134 999.381935,31.636682 C1001.82656,31.6365507 1004.12527,30.6859989 1005.85401,28.9602423 C1007.58275,27.2340916 1008.53468,24.9396063 1008.53468,22.4991955 C1008.53468,20.0586533 1007.58248,17.7639054 1005.85348,16.0381487 C1004.12488,14.3122608 1001.82643,13.3618403 999.381672,13.3618403 C996.936783,13.3618403 994.638204,14.3123921 992.90973,16.0382801 L991.726149,17.2199139 Z M961.651251,28.4013486 L957,23.6926872 L959.781781,21 L964.390952,25.6660612 L964.404406,25.6526282 L967.562036,28.8045341 L964.247834,32.1135295 C961.675969,34.6814718 958.255982,36.0958036 954.618109,36.095935 C950.980631,36.0960663 947.560776,34.6817345 944.988516,32.1139235 C942.416256,29.5463753 940.999737,26.1324345 941,22.5009851 C941,18.869667 942.415993,15.4555949 944.988253,12.8880467 C947.560249,10.319973 950.980105,8.9057725 954.617714,8.90564116 C958.255455,8.90564116 961.675048,10.3197103 964.247571,12.8873899 L970.719271,19.3482912 L983.506231,6.58292154 C987.901835,2.1942634 993.676328,0.000131345828 999.450689,0 C1005.22479,0 1010.99915,2.19386936 1015.39528,6.58239616 C1019.65431,10.8340606 1021.99987,16.4869223 1022,22.4996716 C1022,28.5122896 1019.6547,34.165414 1015.39594,38.4170785 C1006.6042,47.194132 992.298623,47.1942634 983.506757,38.4177352 L980.192029,35.1087397 L983.349396,31.9565712 L986.663992,35.2654353 C993.714879,42.3038642 1005.18742,42.3039955 1012.23831,35.2650413 C1015.65369,31.8553036 1017.53493,27.321771 1017.53479,22.4996716 C1017.53453,17.6775723 1015.65356,13.144171 1012.23778,9.73456468 C1008.82214,6.32482699 1004.28101,4.44710703 999.450558,4.44710703 C994.620235,4.44723838 990.079111,6.32522103 986.663466,9.73495871 L970.719271,25.6524969 L961.089941,16.0395584 C959.361198,14.313937 957.062743,13.3633872 954.617846,13.3635185 C952.173081,13.3633872 949.874362,14.313937 948.145488,16.0398211 C946.416876,17.7657053 945.46468,20.0601856 945.464811,22.5009851 C945.464811,24.9415219 946.417008,27.2361335 948.146014,28.9620177 C949.87502,30.6876392 952.173344,31.6381889 954.617977,31.6380576 C957.063006,31.6380576 959.361461,30.6875078 961.090073,28.9616237 L961.651251,28.4013486 Z" id="icon" transform="translate(977.000000, 22.500000) scale(1, -1) translate(-977.000000, -22.500000) "></path>
                </g>
            </g>
        </g>
    </g>
</svg>