<?xml version="1.0" encoding="UTF-8"?>
<svg width="41px" height="32px" viewBox="0 0 41 32" version="1.1" xmlns="http://www.w3.org/2000/svg" xmlns:xlink="http://www.w3.org/1999/xlink">
    <!-- Generator: Sketch 53.2 (72643) - https://sketchapp.com -->
    <title>Icon</title>
    <desc>Created with Sketch.</desc>
    <g id="Layouts" stroke="none" stroke-width="1" fill="none" fill-rule="evenodd">
        <g id="Home-v2" transform="translate(-435.000000, -3428.000000)" fill="#512848">
            <g id="Testimonials" transform="translate(435.000000, 3234.000000)">
                <g id="Block-1" transform="translate(0.000000, 32.000000)">
                    <g id="Icon" transform="translate(0.000000, 162.000000)">
                        <path d="M12.4119038,14.502374 C11.4567576,14.2306629 10.5016115,14.0927977 9.57250005,14.0927977 C8.13774692,14.0927977 6.94055994,14.4167609 6.01226205,14.813475 C6.90720304,11.5762554 9.0570954,5.99050418 13.3397949,5.36146909 C13.7364164,5.30318788 14.0614427,5.01982063 14.1696492,4.63838018 L15.1056762,1.33041927 C15.1845937,1.05066948 15.1378127,0.751224659 14.9763165,0.508453287 C14.8148203,0.265681915 14.5552875,0.103700354 14.2644316,0.0643102972 C13.9483547,0.0217047253 13.626176,4.54747351e-13 13.3068448,4.54747351e-13 C8.16622231,4.54747351e-13 3.0752284,5.30158012 0.926963217,12.8926068 C-0.334090009,17.3460949 -0.703863357,24.0416007 2.40239549,28.2559349 C4.14061498,30.6141131 6.67655234,31.8733891 9.93983265,31.9991961 C9.95325677,31.9995981 9.96627409,32 9.97969821,32 C14.0061191,32 17.5765269,29.3206722 18.6626599,25.484965 C19.3114921,23.1919009 19.0181955,20.7870977 17.8360598,18.7118848 C16.6665346,16.6599844 14.7403775,15.1643681 12.4119038,14.502374 Z" id="Path"></path>
                        <path d="M39.8359156,18.7120517 C38.6663759,16.6597752 36.7401948,15.1641776 34.411692,14.5021918 C33.456534,14.2304842 32.501376,14.0926207 31.5726597,14.0926207 C30.1378887,14.0926207 28.94028,14.4165798 28.0119706,14.813289 C28.9069227,11.57611 31.0568419,5.99042894 35.3400015,5.36140175 C35.736628,5.30312127 36.0612516,5.01975758 36.1698662,4.63832192 L37.1059048,1.33040256 C37.1848233,1.05065628 37.1380417,0.751215223 36.9765435,0.508446901 C36.8154521,0.265678578 36.555916,0.103699052 36.2646498,0.0643094894 C35.9489757,0.0217044527 35.626793,4.54747351e-13 35.307051,4.54747351e-13 C30.1663645,4.54747351e-13 25.0753071,5.30151353 22.9266084,12.8924449 C21.6659463,17.345877 21.2961683,24.0412988 24.4028726,28.2563838 C26.140707,30.6141305 28.6770827,31.8737926 31.9399969,31.9991961 C31.9534212,31.9995981 31.9664387,32 31.9802698,32 C36.006334,32 39.5771931,29.3207059 40.6633396,25.4850468 C41.3113663,23.1920116 41.0176593,20.7868367 39.8359156,18.7120517 Z" id="Path"></path>
                    </g>
                </g>
            </g>
        </g>
    </g>
</svg>