<?xml version="1.0" encoding="UTF-8"?>
<svg width="110px" height="19px" viewBox="0 0 110 19" version="1.1" xmlns="http://www.w3.org/2000/svg" xmlns:xlink="http://www.w3.org/1999/xlink">
    <!-- Generator: Sketch 53.2 (72643) - https://sketchapp.com -->
    <title>Group 34</title>
    <desc>Created with Sketch.</desc>
    <g id="Layouts" stroke="none" stroke-width="1" fill="none" fill-rule="evenodd" fill-opacity="0.2">
        <g id="Home-v2" transform="translate(-869.000000, -3339.000000)" fill="#000000">
            <g id="Testimonials" transform="translate(450.000000, 3234.000000)">
                <g id="Block-1" transform="translate(0.000000, 32.000000)">
                    <g id="Group-7">
                        <g id="Group-34" transform="translate(419.000000, 73.000000)">
                            <polygon id="Star" style="mix-blend-mode: multiply;" points="10.5 15.75 4.32825485 18.9946784 5.50695329 12.1223392 0.513906579 7.25532156 7.41412743 6.25266078 10.5 0 13.5858726 6.25266078 20.4860934 7.25532156 15.4930467 12.1223392 16.6717451 18.9946784"></polygon>
                            <polygon id="Star" style="mix-blend-mode: multiply;" points="32.5 15.75 26.3282549 18.9946784 27.5069533 12.1223392 22.5139066 7.25532156 29.4141274 6.25266078 32.5 0 35.5858726 6.25266078 42.4860934 7.25532156 37.4930467 12.1223392 38.6717451 18.9946784"></polygon>
                            <polygon id="Star" style="mix-blend-mode: multiply;" points="55.5 15.75 49.3282549 18.9946784 50.5069533 12.1223392 45.5139066 7.25532156 52.4141274 6.25266078 55.5 0 58.5858726 6.25266078 65.4860934 7.25532156 60.4930467 12.1223392 61.6717451 18.9946784"></polygon>
                            <polygon id="Star" style="mix-blend-mode: multiply;" points="77.5 15.75 71.3282549 18.9946784 72.5069533 12.1223392 67.5139066 7.25532156 74.4141274 6.25266078 77.5 0 80.5858726 6.25266078 87.4860934 7.25532156 82.4930467 12.1223392 83.6717451 18.9946784"></polygon>
                            <polygon id="Star" style="mix-blend-mode: multiply;" points="99.5 15.75 93.3282549 18.9946784 94.5069533 12.1223392 89.5139066 7.25532156 96.4141274 6.25266078 99.5 0 102.585873 6.25266078 109.486093 7.25532156 104.493047 12.1223392 105.671745 18.9946784"></polygon>
                        </g>
                    </g>
                </g>
            </g>
        </g>
    </g>
</svg>