<?xml version="1.0" encoding="UTF-8"?>
<svg width="29px" height="28px" viewBox="0 0 29 28" version="1.1" xmlns="http://www.w3.org/2000/svg" xmlns:xlink="http://www.w3.org/1999/xlink">
    <!-- Generator: Sketch 55.2 (78181) - https://sketchapp.com -->
    <title>Group 3</title>
    <desc>Created with Sketch.</desc>
    <g id="Layouts" stroke="none" stroke-width="1" fill="none" fill-rule="evenodd">
        <g id="Components" transform="translate(-378.000000, -4903.000000)" fill="#E35F30">
            <g id="Group-6-Copy" transform="translate(378.000000, 4891.000000)">
                <g id="Group-9">
                    <g id="Stacked-Group-2" transform="translate(0.632450, 12.000000)">
                        <g id="Group-3">
                            <path d="M14,0 C6.2804,0 0,6.2804 0,14 C0,21.7196 6.2804,28 14,28 C21.7196,28 28,21.7196 28,14 C28,6.2804 21.7196,0 14,0 Z M14,26.92256 C6.87428,26.92256 1.07744,21.12572 1.07744,14 C1.07744,6.87428 6.87428,1.07744 14,1.07744 C21.12572,1.07744 26.92256,6.8754 26.92256,14 C26.92256,21.12572 21.12572,26.92256 14,26.92256 Z" id="Fill-1"></path>
                            <path d="M20.59736,8.25776 L12.32196,17.56776 L7.33656,13.57888 C7.1046864,13.3929432 6.765612,13.4312248 6.579692,13.6630984 C6.3937552,13.8960668 6.4320368,14.2340464 6.6639104,14.4199664 L12.0483104,18.7272064 C12.1467472,18.8070512 12.2659656,18.8464248 12.3840864,18.8464248 C12.5328364,18.8464248 12.6804944,18.7851748 12.7865864,18.6659564 L21.4021864,8.9731964 C21.6001548,8.7511648 21.5793732,8.4110124 21.3573416,8.2130524 C21.13531,8.015084 20.7951576,8.0347708 20.5971976,8.2578972 L20.59736,8.25776 Z" id="Fill-2"></path>
                        </g>
                    </g>
                </g>
            </g>
        </g>
    </g>
</svg>