<?xml version="1.0" encoding="UTF-8"?>
<svg width="24px" height="24px" viewBox="0 0 24 24" version="1.1" xmlns="http://www.w3.org/2000/svg" xmlns:xlink="http://www.w3.org/1999/xlink">
    <!-- Generator: Sketch 53.2 (72643) - https://sketchapp.com -->
    <title>Group 3 Copy</title>
    <desc>Created with Sketch.</desc>
    <g id="Layouts" stroke="none" stroke-width="1" fill="none" fill-rule="evenodd">
        <g id="Techincal-Audit" transform="translate(-957.000000, -1904.000000)" fill="#E35F30">
            <g id="Group-5" transform="translate(-6.000000, 1532.000000)">
                <g id="Group-6" transform="translate(963.000000, 272.000000)">
                    <g id="Group-9">
                        <g id="Stacked-Group-2" transform="translate(0.000000, 19.000000)">
                            <g id="Group-3-Copy" transform="translate(0.000000, 81.000000)">
                                <path d="M12,0 C5.3832,0 0,5.3832 0,12 C0,18.6168 5.3832,24 12,24 C18.6168,24 24,18.6168 24,12 C24,5.3832 18.6168,0 12,0 Z M12,23.07648 C5.89224,23.07648 0.92352,18.10776 0.92352,12 C0.92352,5.89224 5.89224,0.92352 12,0.92352 C18.10776,0.92352 23.07648,5.8932 23.07648,12 C23.07648,18.10776 18.10776,23.07648 12,23.07648 Z" id="Fill-1"></path>
                                <path d="M17.65488,7.07808 L10.56168,15.05808 L6.28848,11.63904 C6.0897312,11.4796656 5.799096,11.5124784 5.639736,11.7112272 C5.4803616,11.9109144 5.5131744,12.2006112 5.7119232,12.3599712 L10.3271232,16.0518912 C10.4114976,16.1203296 10.5136848,16.1540784 10.6149312,16.1540784 C10.7424312,16.1540784 10.8689952,16.1015784 10.9599312,15.9993912 L18.3447312,7.6913112 C18.5144184,7.5009984 18.4966056,7.2094392 18.3062928,7.0397592 C18.11598,6.870072 17.8244208,6.8869464 17.6547408,7.0781976 L17.65488,7.07808 Z" id="Fill-2"></path>
                            </g>
                        </g>
                    </g>
                </g>
            </g>
        </g>
    </g>
</svg>